<?xml version="1.0" encoding="UTF-8"?>
<!DOCTYPE svg PUBLIC "-//W3C//DTD SVG 1.1//EN" "http://www.w3.org/Graphics/SVG/1.1/DTD/svg11.dtd">
<svg version="1.1" xmlns="http://www.w3.org/2000/svg" xmlns:xlink="http://www.w3.org/1999/xlink" x="0" y="0" width="155.906" height="184.252" viewBox="0, 0, 155.906, 184.252">
  <g id="Background">
    <rect x="0" y="0" width="155.906" height="184.252" fill="#000000" fill-opacity="0"/>
  </g>
  <g id="Layer_1">
    <path d="M74.743,63.811 L96.753,145.953" fill-opacity="0" stroke="#BEBEBE" stroke-width="0.25" stroke-linecap="round" stroke-linejoin="round"/>
    <path d="M69.372,153.29 L124.133,138.617 L102.123,56.475 L47.362,71.148 L69.372,153.29 z" fill-opacity="0" stroke="#BEBEBE" stroke-width="0.25" stroke-linecap="round" stroke-linejoin="round"/>
    <path d="M75.491,138.471 C76.069,137.242 76.578,135.98 77.014,134.694 C77.445,133.426 77.806,132.134 78.091,130.825 C78.375,129.519 78.585,128.196 78.72,126.865 C78.856,125.519 78.916,124.166 78.902,122.813 C78.888,121.429 78.798,120.045 78.637,118.67 C78.471,117.248 78.231,115.834 77.925,114.436 C77.606,112.977 77.216,111.533 76.766,110.109 C76.293,108.615 75.754,107.142 75.16,105.692 C74.533,104.163 73.845,102.66 73.106,101.183 C72.326,99.621 71.489,98.088 70.606,96.582 C69.671,94.988 68.686,93.425 67.658,91.89 C66.57,90.265 65.436,88.671 64.263,87.106 C63.023,85.45 61.74,83.826 60.422,82.231 C59.028,80.545 57.595,78.891 56.133,77.265 C54.588,75.547 53.01,73.86 51.397,72.207" fill-opacity="0" stroke="#BEBEBE" stroke-width="0.25" stroke-linecap="round" stroke-linejoin="round"/>
    <path d="M79.446,140.263 C80.055,138.884 80.594,137.473 81.061,136.039 C81.522,134.621 81.913,133.18 82.229,131.723 C82.544,130.268 82.784,128.796 82.949,127.316 C83.116,125.822 83.206,124.32 83.223,122.817 C83.24,121.285 83.18,119.753 83.05,118.227 C82.915,116.658 82.706,115.095 82.429,113.545 C82.142,111.939 81.783,110.347 81.361,108.772 C80.922,107.131 80.413,105.508 79.846,103.907 C79.253,102.232 78.596,100.579 77.885,98.951 C77.138,97.242 76.332,95.56 75.476,93.903 C74.576,92.162 73.62,90.449 72.619,88.764 C71.566,86.991 70.462,85.248 69.316,83.533 C68.11,81.729 66.858,79.955 65.566,78.211 C64.207,76.376 62.805,74.573 61.369,72.797 C59.858,70.93 58.311,69.094 56.724,67.292" fill-opacity="0" stroke="#BEBEBE" stroke-width="0.25" stroke-linecap="round" stroke-linejoin="round"/>
    <path d="M83.848,142.148 C84.488,140.619 85.057,139.059 85.555,137.477 C86.047,135.909 86.468,134.32 86.814,132.714 C87.16,131.109 87.43,129.489 87.626,127.859 C87.823,126.217 87.944,124.567 87.991,122.914 C88.039,121.234 88.01,119.553 87.909,117.876 C87.806,116.16 87.628,114.449 87.38,112.747 C87.125,110.995 86.797,109.253 86.404,107.527 C85.997,105.739 85.519,103.968 84.981,102.215 C84.42,100.393 83.794,98.591 83.11,96.812 C82.397,94.956 81.621,93.124 80.793,91.317 C79.926,89.428 79.002,87.566 78.028,85.731 C77.009,83.81 75.935,81.917 74.816,80.053 C73.644,78.1 72.422,76.177 71.158,74.284 C69.833,72.3 68.461,70.348 67.052,68.423 C65.576,66.407 64.058,64.422 62.499,62.471" fill-opacity="0" stroke="#BEBEBE" stroke-width="0.25" stroke-linecap="round" stroke-linejoin="round"/>
    <path d="M112.565,152.941 C113.358,150.663 114.08,148.358 114.729,146.034 C115.375,143.72 115.948,141.386 116.446,139.036 C116.944,136.687 117.367,134.322 117.715,131.946 C118.065,129.561 118.339,127.166 118.538,124.764 C118.738,122.345 118.863,119.919 118.913,117.492 C118.964,115.037 118.94,112.581 118.842,110.127 C118.743,107.638 118.568,105.151 118.323,102.671 C118.073,100.147 117.75,97.63 117.357,95.124 C116.957,92.565 116.484,90.018 115.944,87.485 C115.392,84.893 114.77,82.315 114.084,79.755 C113.381,77.129 112.61,74.521 111.777,71.933 C110.922,69.274 110.002,66.636 109.023,64.02 C108.016,61.328 106.947,58.659 105.822,56.015 C104.662,53.291 103.444,50.592 102.173,47.919 C100.863,45.162 99.498,42.431 98.078,39.731" fill-opacity="0" stroke="#BEBEBE" stroke-width="0.25" stroke-linecap="round" stroke-linejoin="round"/>
    <path d="M66.308,133.641 C67.169,134.164 68.04,134.671 68.922,135.159 C69.93,135.718 70.953,136.251 71.982,136.769 C73.143,137.353 74.313,137.919 75.49,138.47 C76.801,139.084 78.12,139.68 79.445,140.263 C80.906,140.906 82.374,141.533 83.847,142.147 C85.458,142.819 87.075,143.477 88.696,144.123 C90.457,144.825 92.223,145.513 93.993,146.19 C95.903,146.921 97.818,147.64 99.736,148.349 C101.796,149.11 103.86,149.859 105.927,150.599 C108.135,151.39 110.348,152.171 112.564,152.941" fill-opacity="0" stroke="#BEBEBE" stroke-width="0.25" stroke-linecap="round" stroke-linejoin="round"/>
    <path d="M63.781,111.593 C64.872,110.868 65.987,110.18 67.127,109.534 C68.366,108.833 69.634,108.181 70.919,107.567 C72.314,106.901 73.729,106.278 75.159,105.692 C76.706,105.057 78.27,104.465 79.846,103.908 C81.545,103.306 83.258,102.745 84.98,102.215 C86.83,101.646 88.692,101.115 90.561,100.614 C92.562,100.078 94.572,99.577 96.589,99.104 C98.741,98.601 100.9,98.129 103.065,97.686 C105.367,97.215 107.675,96.775 109.987,96.36 C112.439,95.919 114.896,95.507 117.357,95.124" fill-opacity="0" stroke="#BEBEBE" stroke-width="0.25" stroke-linecap="round" stroke-linejoin="round"/>
    <path d="M61.453,108.425 C62.568,107.55 63.714,106.712 64.89,105.919 C66.154,105.067 67.453,104.266 68.774,103.505 C70.194,102.687 71.64,101.915 73.106,101.183 C74.678,100.396 76.273,99.655 77.884,98.951 C79.609,98.198 81.352,97.487 83.109,96.812 C84.986,96.09 86.878,95.41 88.782,94.763 C90.81,94.075 92.851,93.425 94.902,92.807 C97.081,92.15 99.271,91.53 101.469,90.941 C103.798,90.317 106.137,89.729 108.483,89.168 C110.962,88.575 113.449,88.013 115.944,87.485" fill-opacity="0" stroke="#BEBEBE" stroke-width="0.25" stroke-linecap="round" stroke-linejoin="round"/>
    <path d="M58.678,105.166 C59.819,104.141 60.995,103.154 62.207,102.213 C63.496,101.211 64.826,100.261 66.182,99.352 C67.628,98.383 69.104,97.462 70.605,96.582 C72.203,95.645 73.829,94.755 75.475,93.904 C77.226,92.999 79,92.139 80.792,91.317 C82.695,90.444 84.618,89.614 86.556,88.822 C88.611,87.981 90.683,87.182 92.767,86.418 C94.974,85.609 97.194,84.84 99.426,84.106 C101.783,83.33 104.152,82.592 106.531,81.885 C109.039,81.14 111.556,80.429 114.084,79.755" fill-opacity="0" stroke="#BEBEBE" stroke-width="0.25" stroke-linecap="round" stroke-linejoin="round"/>
    <path d="M55.456,101.815 C56.623,100.641 57.83,99.505 59.076,98.415 C60.392,97.264 61.752,96.164 63.143,95.107 C64.615,93.989 66.122,92.918 67.658,91.89 C69.282,90.802 70.938,89.763 72.619,88.764 C74.396,87.709 76.201,86.699 78.028,85.731 C79.957,84.707 81.911,83.728 83.883,82.788 C85.965,81.796 88.067,80.848 90.186,79.937 C92.419,78.977 94.67,78.059 96.936,77.178 C99.32,76.25 101.72,75.363 104.133,74.51 C106.668,73.613 109.216,72.753 111.777,71.933" fill-opacity="0" stroke="#BEBEBE" stroke-width="0.25" stroke-linecap="round" stroke-linejoin="round"/>
    <path d="M51.787,98.373 C52.981,97.049 54.218,95.765 55.499,94.526 C56.841,93.227 58.231,91.977 59.657,90.77 C61.155,89.503 62.693,88.283 64.263,87.106 C65.914,85.868 67.601,84.68 69.316,83.534 C71.12,82.328 72.956,81.17 74.816,80.053 C76.773,78.879 78.757,77.751 80.763,76.663 C82.872,75.521 85.005,74.423 87.157,73.365 C89.418,72.254 91.7,71.187 93.999,70.159 C96.411,69.08 98.842,68.044 101.287,67.044 C103.85,65.996 106.428,64.987 109.023,64.02" fill-opacity="0" stroke="#BEBEBE" stroke-width="0.25" stroke-linecap="round" stroke-linejoin="round"/>
    <path d="M47.671,94.839 C48.892,93.367 50.159,91.934 51.474,90.545 C52.844,89.098 54.264,87.698 55.724,86.342 C57.249,84.926 58.817,83.557 60.421,82.231 C62.099,80.845 63.817,79.507 65.566,78.212 C67.397,76.856 69.263,75.548 71.157,74.283 C73.141,72.959 75.156,71.682 77.196,70.447 C79.332,69.154 81.495,67.907 83.682,66.702 C85.969,65.44 88.282,64.224 90.614,63.048 C93.054,61.819 95.515,60.633 97.994,59.486 C100.584,58.287 103.194,57.129 105.821,56.015" fill-opacity="0" stroke="#BEBEBE" stroke-width="0.25" stroke-linecap="round" stroke-linejoin="round"/>
    <path d="M43.107,91.214 C44.355,89.594 45.654,88.012 47.002,86.473 C48.399,84.877 49.85,83.329 51.343,81.823 C52.895,80.258 54.494,78.74 56.132,77.265 C57.837,75.73 59.585,74.242 61.368,72.798 C63.226,71.293 65.123,69.836 67.051,68.423 C69.062,66.949 71.107,65.523 73.181,64.139 C75.344,62.696 77.538,61.301 79.758,59.947 C82.073,58.535 84.416,57.17 86.782,55.846 C89.249,54.466 91.741,53.132 94.254,51.837 C96.872,50.487 99.511,49.18 102.172,47.919" fill-opacity="0" stroke="#BEBEBE" stroke-width="0.25" stroke-linecap="round" stroke-linejoin="round"/>
    <path d="M38.097,87.497 C39.373,85.729 40.702,83.997 42.083,82.309 C43.509,80.565 44.99,78.867 46.516,77.212 C48.096,75.499 49.725,73.831 51.396,72.207 C53.129,70.523 54.907,68.886 56.724,67.293 C58.61,65.639 60.537,64.033 62.498,62.471 C64.537,60.847 66.612,59.272 68.72,57.74 C70.91,56.147 73.135,54.602 75.389,53.1 C77.731,51.539 80.105,50.024 82.504,48.552 C84.999,47.023 87.522,45.539 90.067,44.096 C92.713,42.597 95.383,41.14 98.077,39.731" fill-opacity="0" stroke="#BEBEBE" stroke-width="0.25" stroke-linecap="round" stroke-linejoin="round"/>
    <path d="M71.983,136.769 C72.529,135.691 73.008,134.578 73.415,133.439 C73.815,132.32 74.145,131.177 74.4,130.017 C74.654,128.86 74.833,127.685 74.937,126.504 C75.043,125.306 75.072,124.102 75.028,122.9 C74.983,121.662 74.861,120.428 74.672,119.204 C74.474,117.928 74.202,116.663 73.868,115.416 C73.516,114.103 73.095,112.809 72.618,111.537 C72.111,110.189 71.541,108.865 70.92,107.567 C70.259,106.185 69.54,104.831 68.775,103.505 C67.959,102.091 67.092,100.707 66.183,99.351 C65.213,97.906 64.197,96.492 63.144,95.106 C62.021,93.63 60.856,92.185 59.657,90.77 C58.382,89.263 57.068,87.788 55.724,86.342 C54.296,84.805 52.833,83.3 51.344,81.822 C49.764,80.254 48.156,78.716 46.516,77.211" fill-opacity="0" stroke="#BEBEBE" stroke-width="0.25" stroke-linecap="round" stroke-linejoin="round"/>
    <path d="M68.922,135.16 C69.437,134.233 69.885,133.269 70.262,132.277 C70.631,131.308 70.931,130.314 71.156,129.303 C71.38,128.294 71.528,127.268 71.602,126.237 C71.677,125.186 71.675,124.13 71.601,123.079 C71.525,121.988 71.372,120.902 71.153,119.83 C70.923,118.7 70.62,117.585 70.258,116.49 C69.873,115.323 69.421,114.178 68.916,113.058 C68.375,111.856 67.774,110.682 67.127,109.534 C66.43,108.3 65.681,107.096 64.89,105.92 C64.039,104.653 63.141,103.419 62.207,102.213 C61.202,100.916 60.155,99.652 59.076,98.415 C57.918,97.088 56.723,95.793 55.499,94.526 C54.188,93.168 52.844,91.843 51.474,90.545 C50.01,89.158 48.517,87.803 47.002,86.473 C45.387,85.055 43.748,83.666 42.083,82.309" fill-opacity="0" stroke="#BEBEBE" stroke-width="0.25" stroke-linecap="round" stroke-linejoin="round"/>
    <path d="M66.308,133.641 C66.79,132.867 67.209,132.05 67.557,131.205 C67.894,130.386 68.164,129.541 68.359,128.678 C68.552,127.818 68.67,126.94 68.713,126.059 C68.758,125.155 68.724,124.248 68.621,123.349 C68.513,122.403 68.328,121.466 68.082,120.547 C67.818,119.562 67.483,118.596 67.095,117.653 C66.675,116.632 66.191,115.638 65.661,114.669 C65.085,113.614 64.453,112.589 63.781,111.592 C63.048,110.505 62.268,109.451 61.453,108.425 C60.565,107.307 59.637,106.222 58.678,105.165 C57.637,104.017 56.559,102.902 55.456,101.814 C54.261,100.637 53.036,99.491 51.787,98.372 C50.44,97.165 49.066,95.989 47.67,94.838 C46.171,93.602 44.648,92.396 43.107,91.213 C41.457,89.947 39.788,88.706 38.096,87.496" fill-opacity="0" stroke="#BEBEBE" stroke-width="0.25" stroke-linecap="round" stroke-linejoin="round"/>
    <path d="M91.283,103.505 C91.059,102.537 90.818,101.573 90.561,100.614 C90.033,98.645 89.438,96.694 88.782,94.764 C88.102,92.761 87.357,90.78 86.556,88.822 C85.723,86.786 84.829,84.774 83.883,82.788 C82.897,80.72 81.855,78.678 80.763,76.663 C79.625,74.563 78.433,72.491 77.196,70.447 C75.904,68.315 74.563,66.213 73.181,64.139 C71.739,61.975 70.252,59.84 68.72,57.74" fill-opacity="0" stroke="#BEBEBE" stroke-width="0.25" stroke-linecap="round" stroke-linejoin="round"/>
    <path d="M67.096,117.654 C68.138,117.234 69.193,116.844 70.259,116.49 C71.45,116.093 72.655,115.741 73.868,115.417 C75.213,115.058 76.566,114.733 77.925,114.435 C79.42,114.108 80.923,113.815 82.429,113.546 C84.075,113.252 85.726,112.988 87.38,112.747" fill-opacity="0" stroke="#BEBEBE" stroke-width="0.25" stroke-linecap="round" stroke-linejoin="round"/>
    <path d="M65.662,114.669 C66.728,114.096 67.813,113.557 68.916,113.058 C70.131,112.507 71.368,112.006 72.617,111.538 C73.987,111.024 75.371,110.55 76.766,110.109 C78.287,109.628 79.82,109.185 81.361,108.772 C83.034,108.324 84.715,107.911 86.404,107.527" fill-opacity="0" stroke="#BEBEBE" stroke-width="0.25" stroke-linecap="round" stroke-linejoin="round"/>
    <path d="M103.695,101.024 C103.502,99.908 103.292,98.795 103.065,97.686 C102.601,95.422 102.067,93.173 101.469,90.941 C100.853,88.644 100.17,86.365 99.426,84.105 C98.658,81.774 97.826,79.465 96.936,77.178 C96.016,74.814 95.034,72.474 93.998,70.159 C92.926,67.762 91.796,65.392 90.614,63.048 C89.39,60.62 88.11,58.22 86.783,55.846 C85.407,53.385 83.981,50.953 82.504,48.552" fill-opacity="0" stroke="#BEBEBE" stroke-width="0.25" stroke-linecap="round" stroke-linejoin="round"/>
    <path d="M97.265,102.218 C97.057,101.176 96.831,100.138 96.589,99.104 C96.093,96.988 95.529,94.887 94.902,92.807 C94.254,90.657 93.541,88.526 92.768,86.418 C91.968,84.233 91.105,82.074 90.186,79.938 C89.234,77.72 88.222,75.531 87.158,73.366 C86.053,71.117 84.892,68.896 83.682,66.701 C82.424,64.422 81.114,62.171 79.759,59.946 C78.35,57.634 76.894,55.35 75.389,53.1" fill-opacity="0" stroke="#BEBEBE" stroke-width="0.25" stroke-linecap="round" stroke-linejoin="round"/>
    <path d="M110.572,99.921 C110.395,98.731 110.2,97.544 109.987,96.359 C109.555,93.948 109.052,91.55 108.483,89.168 C107.899,86.723 107.247,84.294 106.532,81.884 C105.796,79.406 104.994,76.947 104.133,74.51 C103.245,71.998 102.295,69.509 101.287,67.043 C100.248,64.499 99.148,61.98 97.994,59.486 C96.803,56.91 95.553,54.36 94.254,51.837 C92.912,49.228 91.516,46.646 90.067,44.096" fill-opacity="0" stroke="#BEBEBE" stroke-width="0.25" stroke-linecap="round" stroke-linejoin="round"/>
    <path d="M68.082,120.547 C69.1,120.282 70.123,120.042 71.153,119.83 C72.32,119.589 73.494,119.386 74.671,119.204 C75.99,119 77.312,118.824 78.637,118.67 C80.105,118.498 81.576,118.353 83.049,118.227 C84.667,118.088 86.288,117.973 87.909,117.876" fill-opacity="0" stroke="#BEBEBE" stroke-width="0.25" stroke-linecap="round" stroke-linejoin="round"/>
    <path d="M68.622,123.349 C69.613,123.241 70.607,123.15 71.602,123.079 C72.743,122.997 73.885,122.941 75.028,122.9 C76.319,122.854 77.611,122.826 78.902,122.813 C80.343,122.798 81.783,122.801 83.223,122.817 C84.813,122.835 86.402,122.868 87.991,122.913" fill-opacity="0" stroke="#BEBEBE" stroke-width="0.25" stroke-linecap="round" stroke-linejoin="round"/>
    <path d="M68.714,126.059 C69.677,126.109 70.64,126.168 71.602,126.236 C72.715,126.315 73.826,126.406 74.937,126.504 C76.199,126.616 77.46,126.737 78.72,126.864 C80.13,127.007 81.54,127.158 82.949,127.316 C84.509,127.49 86.068,127.671 87.626,127.859" fill-opacity="0" stroke="#BEBEBE" stroke-width="0.25" stroke-linecap="round" stroke-linejoin="round"/>
    <path d="M68.359,128.678 C69.291,128.887 70.223,129.095 71.156,129.302 C72.237,129.542 73.318,129.78 74.399,130.018 C75.63,130.288 76.86,130.556 78.09,130.825 C79.469,131.125 80.849,131.425 82.228,131.723 C83.756,132.054 85.285,132.384 86.813,132.713" fill-opacity="0" stroke="#BEBEBE" stroke-width="0.25" stroke-linecap="round" stroke-linejoin="round"/>
    <path d="M67.557,131.206 C68.455,131.573 69.356,131.931 70.262,132.277 C71.308,132.676 72.36,133.062 73.415,133.439 C74.611,133.868 75.811,134.285 77.014,134.693 C78.36,135.152 79.709,135.599 81.06,136.04 C82.556,136.527 84.054,137.005 85.554,137.477" fill-opacity="0" stroke="#BEBEBE" stroke-width="0.25" stroke-linecap="round" stroke-linejoin="round"/>
    <path d="M86.239,135.108 C86.247,135.11 86.255,135.112 86.263,135.114 C87.075,135.329 87.888,135.543 88.7,135.756 C89.55,135.978 90.4,136.199 91.25,136.42 C92.136,136.649 93.023,136.878 93.911,137.106 C94.834,137.344 95.759,137.58 96.683,137.816 C97.644,138.061 98.606,138.305 99.568,138.549 C100.566,138.801 101.565,139.053 102.564,139.304 C103.6,139.564 104.636,139.824 105.672,140.082 C106.745,140.35 107.818,140.617 108.891,140.884 C110.002,141.159 111.112,141.434 112.223,141.708 C113.371,141.991 114.518,142.273 115.666,142.555" fill-opacity="0" stroke="#B8B8B8" stroke-width="0.5" stroke-dasharray="1,1" stroke-linecap="round" stroke-linejoin="round"/>
    <path d="M85.748,104.882 L73.102,108.271" fill-opacity="0" stroke="#666666" stroke-width="0.75" stroke-linecap="round" stroke-linejoin="round"/>
    <path d="M72.519,106.098 L67.306,109.824 L73.684,110.444 z" fill="#666666"/>
    <path d="M72.519,106.098 L67.306,109.824 L73.684,110.444 z" fill-opacity="0" stroke="#666666" stroke-width="0.75"/>
    <path d="M85.748,104.882 L82.359,92.236" fill-opacity="0" stroke="#666666" stroke-width="0.75" stroke-linecap="round" stroke-linejoin="round"/>
    <path d="M84.532,91.654 L80.806,86.441 L80.186,92.819 z" fill="#666666"/>
    <path d="M84.532,91.654 L80.806,86.441 L80.186,92.818 z" fill-opacity="0" stroke="#666666" stroke-width="0.75"/>
    <path d="M83.848,142.148 C84.169,141.38 84.472,140.605 84.757,139.824 C85.041,139.047 85.307,138.265 85.555,137.477 C85.801,136.692 86.03,135.902 86.24,135.107 C86.45,134.314 86.641,133.516 86.814,132.714 C86.986,131.912 87.141,131.107 87.276,130.298 C87.411,129.488 87.528,128.675 87.626,127.859 C87.724,127.041 87.804,126.22 87.865,125.398 C87.926,124.571 87.968,123.742 87.991,122.914 C88.015,122.078 88.02,121.242 88.006,120.406 C87.992,119.562 87.96,118.719 87.909,117.876 C87.858,117.024 87.788,116.173 87.701,115.323 C87.612,114.463 87.505,113.604 87.38,112.747 C87.254,111.878 87.109,111.012 86.948,110.149 C86.784,109.271 86.602,108.397 86.404,107.527 C86.202,106.641 85.983,105.76 85.748,104.882 C85.509,103.989 85.252,103.1 84.981,102.215 C84.703,101.313 84.41,100.416 84.101,99.525 C83.786,98.615 83.456,97.711 83.11,96.812 C82.757,95.894 82.389,94.982 82.007,94.076 C81.617,93.15 81.211,92.23 80.793,91.317 C80.364,90.383 79.922,89.456 79.466,88.535 C79,87.594 78.52,86.659 78.028,85.731 C77.524,84.781 77.007,83.839 76.478,82.903 C75.937,81.946 75.382,80.996 74.816,80.053 C74.237,79.088 73.646,78.13 73.043,77.18 C72.426,76.207 71.797,75.242 71.158,74.284 C70.503,73.303 69.837,72.33 69.16,71.365 C68.468,70.377 67.765,69.396 67.052,68.423 C66.322,67.427 65.581,66.439 64.831,65.458 C64.063,64.455 63.286,63.458 62.499,62.471" fill-opacity="0" stroke="#666666" stroke-width="0.5" stroke-linecap="round" stroke-linejoin="round"/>
    <path d="M64.777,113.142 C65.302,112.822 65.834,112.512 66.371,112.213 C66.934,111.9 67.503,111.598 68.077,111.307 C68.678,111.002 69.284,110.708 69.894,110.424 C70.533,110.127 71.176,109.84 71.824,109.564 C72.5,109.274 73.181,108.996 73.865,108.726 C74.579,108.445 75.297,108.174 76.018,107.911 C76.769,107.638 77.525,107.375 78.283,107.12 C79.072,106.854 79.864,106.598 80.659,106.351 C81.486,106.093 82.315,105.845 83.147,105.605 C84.012,105.355 84.879,105.115 85.747,104.882 C86.649,104.64 87.553,104.407 88.459,104.182 C89.398,103.948 90.34,103.722 91.283,103.504 C92.259,103.278 93.238,103.061 94.218,102.85 C95.232,102.632 96.248,102.421 97.265,102.218 C98.317,102.008 99.37,101.805 100.424,101.609 C101.513,101.407 102.603,101.212 103.695,101.024 C104.821,100.829 105.949,100.642 107.077,100.461 C108.241,100.274 109.406,100.094 110.571,99.921 C111.773,99.742 112.975,99.57 114.177,99.403 C115.416,99.232 116.655,99.067 117.895,98.909" fill-opacity="0" stroke="#666666" stroke-width="0.5" stroke-linecap="round" stroke-linejoin="round"/>
    <path d="M98.077,39.731 C98.791,41.092 99.492,42.461 100.18,43.836 C100.857,45.19 101.522,46.551 102.172,47.919 C102.813,49.265 103.439,50.618 104.052,51.978 C104.656,53.318 105.245,54.663 105.821,56.015 C106.387,57.347 106.94,58.685 107.477,60.029 C108.007,61.353 108.522,62.684 109.022,64.02 C109.515,65.337 109.993,66.66 110.455,67.988 C110.911,69.298 111.351,70.613 111.776,71.933 C112.195,73.235 112.598,74.543 112.986,75.855 C113.368,77.151 113.734,78.45 114.083,79.755 C114.428,81.043 114.757,82.335 115.069,83.631 C115.377,84.912 115.669,86.197 115.943,87.485 C116.215,88.759 116.469,90.036 116.706,91.316 C116.94,92.582 117.157,93.852 117.356,95.124 C117.554,96.383 117.733,97.645 117.895,98.909 C118.055,100.161 118.198,101.415 118.322,102.671 C118.445,103.916 118.551,105.163 118.637,106.411 C118.723,107.648 118.791,108.887 118.841,110.127 C118.89,111.358 118.921,112.589 118.932,113.821 C118.944,115.044 118.938,116.268 118.912,117.492 C118.887,118.708 118.843,119.924 118.781,121.139 C118.718,122.349 118.637,123.558 118.537,124.764 C118.437,125.967 118.319,127.168 118.181,128.367 C118.045,129.562 117.889,130.755 117.714,131.946 C117.54,133.134 117.347,134.32 117.135,135.502 C116.924,136.684 116.694,137.862 116.445,139.036 C116.196,140.21 115.928,141.38 115.642,142.546 C115.356,143.714 115.051,144.876 114.728,146.034 C114.404,147.194 114.062,148.349 113.702,149.499 C113.341,150.652 112.961,151.8 112.564,152.941 C111.438,152.549 110.314,152.155 109.19,151.758 C108.101,151.374 107.013,150.988 105.927,150.599 C104.875,150.223 103.825,149.844 102.776,149.463 C101.761,149.094 100.748,148.723 99.736,148.349 C98.759,147.988 97.783,147.625 96.809,147.258 C95.869,146.905 94.93,146.549 93.993,146.19 C93.09,145.845 92.189,145.497 91.289,145.145 C90.423,144.807 89.559,144.467 88.696,144.123 C87.868,143.793 87.042,143.46 86.216,143.124 C85.425,142.801 84.635,142.476 83.847,142.147 C83.094,141.833 82.341,141.515 81.59,141.194 C80.874,140.887 80.159,140.577 79.445,140.263 C78.766,139.964 78.088,139.662 77.412,139.355 C76.77,139.064 76.129,138.769 75.49,138.47 C74.885,138.187 74.282,137.9 73.68,137.608 C73.112,137.333 72.546,137.053 71.982,136.769 C71.451,136.501 70.922,136.23 70.396,135.953 C69.902,135.693 69.41,135.429 68.922,135.159 C68.465,134.907 68.01,134.651 67.559,134.389 C67.139,134.145 66.722,133.895 66.308,133.641 C66.551,133.248 66.778,132.846 66.988,132.435 C67.194,132.033 67.384,131.623 67.557,131.205 C67.727,130.794 67.879,130.377 68.014,129.953 C68.147,129.533 68.262,129.107 68.359,128.678 C68.455,128.249 68.533,127.815 68.592,127.38 C68.651,126.942 68.692,126.501 68.713,126.059 C68.736,125.611 68.738,125.163 68.723,124.715 C68.708,124.258 68.673,123.802 68.621,123.349 C68.568,122.883 68.496,122.419 68.407,121.959 C68.316,121.485 68.207,121.013 68.082,120.547 C67.952,120.064 67.806,119.585 67.644,119.112 C67.477,118.62 67.293,118.134 67.095,117.653 C66.889,117.154 66.668,116.66 66.434,116.172 C66.19,115.664 65.932,115.163 65.661,114.669 C65.379,114.153 65.084,113.644 64.777,113.142 C64.457,112.618 64.124,112.102 63.781,111.592 C63.422,111.061 63.052,110.537 62.673,110.02 C62.276,109.48 61.869,108.949 61.453,108.425 C61.018,107.877 60.574,107.338 60.121,106.806 C59.649,106.252 59.167,105.705 58.678,105.165 C58.168,104.603 57.649,104.049 57.123,103.501 C56.575,102.931 56.019,102.369 55.456,101.814 C54.87,101.237 54.277,100.667 53.677,100.105 C53.054,99.52 52.423,98.943 51.787,98.372 C51.126,97.78 50.458,97.195 49.784,96.617 C49.086,96.017 48.381,95.424 47.67,94.838 C46.934,94.231 46.192,93.631 45.445,93.037 C44.671,92.422 43.891,91.815 43.107,91.213 C42.295,90.591 41.479,89.976 40.658,89.366 C39.809,88.736 38.955,88.113 38.096,87.496 C38.728,86.618 39.374,85.749 40.033,84.89 C40.703,84.019 41.386,83.158 42.082,82.308 C42.789,81.444 43.51,80.59 44.243,79.748 C44.988,78.891 45.746,78.046 46.515,77.211 C47.298,76.362 48.093,75.524 48.899,74.697 C49.72,73.855 50.552,73.025 51.395,72.206 C52.254,71.371 53.123,70.549 54.003,69.737 C54.899,68.911 55.806,68.096 56.723,67.292 C57.657,66.473 58.601,65.665 59.554,64.869 C60.526,64.058 61.507,63.258 62.497,62.47 C63.507,61.666 64.525,60.874 65.552,60.093 C66.599,59.297 67.655,58.512 68.719,57.739 C69.804,56.95 70.897,56.173 71.997,55.408 C73.12,54.627 74.25,53.858 75.388,53.099 C76.548,52.326 77.715,51.565 78.89,50.814 C80.087,50.049 81.292,49.295 82.503,48.551 C83.739,47.794 84.981,47.047 86.229,46.312 C87.502,45.562 88.781,44.823 90.066,44.095 C91.377,43.353 92.693,42.622 94.015,41.901 C95.363,41.167 96.717,40.443 98.076,39.73" fill-opacity="0" stroke="#000000" stroke-width="1.5" stroke-linecap="round" stroke-linejoin="round"/>
    <path d="M93.089,176.103 C96.318,167.223 99.547,158.343 102.775,149.463 C103.15,148.434 103.507,147.398 103.845,146.357 C104.183,145.319 104.502,144.276 104.802,143.227 C105.103,142.181 105.384,141.13 105.648,140.075 C105.911,139.02 106.157,137.962 106.382,136.899 C106.608,135.837 106.815,134.771 107.005,133.701 C107.193,132.631 107.364,131.557 107.515,130.48 C107.666,129.401 107.799,128.32 107.913,127.236 C108.027,126.149 108.123,125.06 108.2,123.969 C108.277,122.874 108.336,121.777 108.374,120.68 C108.414,119.576 108.436,118.472 108.438,117.367 C108.44,116.255 108.424,115.143 108.39,114.032 C108.354,112.912 108.3,111.792 108.229,110.673 C108.157,109.545 108.065,108.418 107.957,107.292 C107.848,106.156 107.719,105.021 107.574,103.888 C107.425,102.743 107.26,101.601 107.077,100.461 C106.893,99.308 106.69,98.158 106.47,97.012 C106.247,95.85 106.007,94.693 105.752,93.539 C105.491,92.37 105.214,91.204 104.921,90.043 C104.622,88.866 104.308,87.693 103.978,86.525 C103.642,85.34 103.29,84.159 102.923,82.984 C102.549,81.79 102.16,80.602 101.757,79.42 C101.345,78.218 100.92,77.023 100.479,75.832 C100.031,74.623 99.567,73.42 99.089,72.223 C98.603,71.006 98.102,69.795 97.587,68.59 C97.064,67.365 96.526,66.146 95.974,64.934 C95.413,63.702 94.838,62.475 94.249,61.256 C93.65,60.015 93.037,58.781 92.412,57.554 C91.775,56.306 91.126,55.064 90.463,53.83 C89.789,52.574 89.102,51.325 88.403,50.083 C87.691,48.819 86.967,47.562 86.23,46.313 C81.431,38.174 76.631,30.035 71.831,21.896" fill-opacity="0" stroke="#6887FF" stroke-width="1.5" stroke-dasharray="4.5,3" stroke-linecap="round" stroke-linejoin="round"/>
    <path d="M85.748,104.882 L20.551,104.882" fill-opacity="0" stroke="#666666" stroke-width="0.5" stroke-dasharray="1.5,1" stroke-linecap="round" stroke-linejoin="round"/>
    <path d="M85.748,104.882 L63.738,22.74" fill-opacity="0" stroke="#666666" stroke-width="0.5" stroke-dasharray="1.5,1" stroke-linecap="round" stroke-linejoin="round"/>
    <path d="M85.748,19.843 L85.748,104.882" fill-opacity="0" stroke="#666666" stroke-width="0.5" stroke-dasharray="1.5,1" stroke-linecap="round" stroke-linejoin="round"/>
    <path d="M85.748,104.882 L22.773,121.756" fill-opacity="0" stroke="#666666" stroke-width="0.5" stroke-dasharray="1.5,1" stroke-linecap="round" stroke-linejoin="round"/>
    <path d="M85.748,39.685 C80.986,39.685 76.388,40.181 71.794,41.193" fill-opacity="0" stroke="#666666" stroke-width="0.5" stroke-linecap="round" stroke-linejoin="round"/>
    <path d="M71.794,41.193 L72.41,39.499 L68.88,41.905 L73.121,42.413 z" fill="#666666"/>
    <path d="M71.794,41.193 L72.41,39.499 L68.88,41.905 L73.121,42.413 z" fill-opacity="0" stroke="#666666" stroke-width="0.5"/>
    <path d="M126.085,91.139 L136.356,129.472" fill-opacity="0" stroke="#666666" stroke-width="0.5" stroke-linecap="round" stroke-linejoin="round"/>
    <path d="M132.461,125.887 L138.784,127.581" fill-opacity="0" stroke="#666666" stroke-width="0.5" stroke-linecap="round" stroke-linejoin="round"/>
    <path d="M132.884,127.468 L138.36,126.001" fill-opacity="0" stroke="#666666" stroke-width="0.5" stroke-linecap="round" stroke-linejoin="round"/>
    <path d="M124.081,94.611 L129.557,93.144" fill-opacity="0" stroke="#666666" stroke-width="0.5" stroke-linecap="round" stroke-linejoin="round"/>
    <path d="M123.657,93.03 L129.98,94.724" fill-opacity="0" stroke="#666666" stroke-width="0.5" stroke-linecap="round" stroke-linejoin="round"/>
    <path d="M97.683,160.377 L122.326,153.774" fill-opacity="0" stroke="#666666" stroke-width="0.5" stroke-linecap="round" stroke-linejoin="round"/>
    <path d="M120.321,157.246 L118.854,151.77" fill-opacity="0" stroke="#666666" stroke-width="0.5" stroke-linecap="round" stroke-linejoin="round"/>
    <path d="M118.74,157.669 L120.434,151.346" fill-opacity="0" stroke="#666666" stroke-width="0.5" stroke-linecap="round" stroke-linejoin="round"/>
    <path d="M101.155,162.381 L99.688,156.905" fill-opacity="0" stroke="#666666" stroke-width="0.5" stroke-linecap="round" stroke-linejoin="round"/>
    <path d="M99.574,162.805 L101.268,156.482" fill-opacity="0" stroke="#666666" stroke-width="0.5" stroke-linecap="round" stroke-linejoin="round"/>
    <path d="M99.414,121.883 L100.857,116.4" fill-opacity="0" stroke="#666666" stroke-width="0.5" stroke-linecap="round" stroke-linejoin="round"/>
    <path d="M98.609,121.085 L100.052,115.602" fill-opacity="0" stroke="#666666" stroke-width="0.5" stroke-linecap="round" stroke-linejoin="round"/>
    <path d="M85.748,104.882 L113.718,132.603" fill-opacity="0" stroke="#666666" stroke-width="0.5" stroke-linecap="round" stroke-linejoin="round"/>
    <path d="M85.748,104.882 L101.819,133.29" fill-opacity="0" stroke="#6887FF" stroke-width="0.75" stroke-linecap="round" stroke-linejoin="round"/>
    <path d="M101.819,133.29 L99.122,133.092 L104.035,137.207 L103.039,130.877 z" fill="#6887FF"/>
    <path d="M101.819,133.29 L99.122,133.092 L104.035,137.207 L103.039,130.877 z" fill-opacity="0" stroke="#6887FF" stroke-width="0.75"/>
    <path d="M113.718,132.603 L110.306,135.739" fill-opacity="0" stroke="#000000" stroke-width="0.5" stroke-linecap="round" stroke-linejoin="round"/>
    <path d="M110.306,135.739 L110.027,133.958 L108.098,137.769 L112.058,136.167 z" fill="#000000"/>
    <path d="M110.306,135.739 L110.027,133.958 L108.098,137.769 L112.058,136.167 z" fill-opacity="0" stroke="#000000" stroke-width="0.5"/>
    <path d="M107.017,139.71 C106.814,138.954 106.037,138.505 105.281,138.708 C104.525,138.91 104.076,139.687 104.279,140.444 C104.482,141.2 105.259,141.648 106.015,141.446 C106.771,141.243 107.22,140.466 107.017,139.71 z" fill-opacity="0" stroke="#FF0000" stroke-width="1" stroke-linecap="round" stroke-linejoin="round"/>
    <path d="M108.386,139.343 C107.981,137.831 106.427,136.933 104.914,137.339 C103.402,137.744 102.505,139.298 102.91,140.81 C103.315,142.322 104.87,143.22 106.382,142.815 C107.894,142.41 108.791,140.855 108.386,139.343 z" fill="#FFFFFF"/>
    <path d="M105.48,137.247 C106.933,137.279 107.88,138.01 108.386,139.343 C108.791,140.855 107.894,142.41 106.382,142.815 C104.87,143.22 103.315,142.322 102.91,140.81 C102.505,139.298 103.402,137.744 104.914,137.339 L105.48,137.247 z M105.9,138.259 L105.172,138.305 C104.194,138.567 103.613,139.573 103.876,140.551 C104.138,141.53 105.144,142.111 106.123,141.849 C107.101,141.587 107.682,140.581 107.42,139.602 C106.891,138.537 107.306,139.071 105.9,138.259 z" fill="#6887FF"/>
    <path d="M85.381,103.513 C84.625,103.716 84.176,104.493 84.379,105.249 C84.581,106.005 85.359,106.454 86.115,106.251 C86.871,106.049 87.319,105.271 87.117,104.515 C86.914,103.759 86.137,103.31 85.381,103.513 z" fill-opacity="0" stroke="#FF0000" stroke-width="1" stroke-linecap="round" stroke-linejoin="round"/>
    <path d="M88.486,104.149 C88.081,102.637 86.526,101.739 85.014,102.145 C83.502,102.55 82.605,104.104 83.01,105.616 C83.415,107.128 84.969,108.026 86.482,107.621 C87.994,107.215 88.891,105.661 88.486,104.149 z" fill="#FFFFFF"/>
    <path d="M85.58,102.052 C87.033,102.084 87.981,102.816 88.486,104.149 C88.891,105.661 87.994,107.215 86.482,107.621 C84.969,108.026 83.415,107.128 83.01,105.616 C82.605,104.104 83.502,102.55 85.014,102.145 L85.58,102.052 z M86,103.065 L85.272,103.11 C84.294,103.373 83.714,104.378 83.976,105.357 C84.238,106.336 85.244,106.917 86.222,106.655 C87.201,106.392 87.782,105.386 87.52,104.407 C86.991,103.343 87.406,103.876 86,103.065 z" fill="#000000"/>
    <path d="M16.344,124.571 C16.308,124.436 16.163,124.475 16.077,124.498 C15.971,124.527 15.933,124.537 15.897,124.598 C15.883,124.622 15.888,124.641 15.895,124.898 C15.909,125.719 15.739,125.971 15.499,126.035 C15.393,126.064 15.267,126.056 15.182,125.738 C15.143,125.594 15.126,125.454 15.129,125.309 L15.036,119.651 C15.038,119.506 15.031,119.477 15.031,119.477 C14.997,119.352 14.878,119.332 14.772,119.361 C14.734,119.371 14.724,119.373 14.708,119.388 L13.482,119.779 C13.35,119.824 13.179,119.88 13.251,120.15 C13.298,120.323 13.471,120.277 13.548,120.256 C13.654,120.228 13.827,120.181 13.957,120.167 L14.007,122.433 C13.827,122.337 13.453,122.21 12.943,122.347 C11.268,122.796 10.636,124.595 10.99,125.913 C11.307,127.097 12.3,127.263 13.099,127.049 C13.782,126.866 14.182,126.357 14.297,126.171 C14.802,126.593 15.437,126.423 15.543,126.395 C15.899,126.299 16.124,126.022 16.234,125.622 C16.371,125.172 16.357,124.619 16.344,124.571 z M14.08,125.745 C13.889,126.147 13.516,126.566 13.054,126.69 C12.458,126.85 12.27,126.343 12.214,126.132 C12.079,125.631 12.09,124.36 12.143,123.943 C12.253,123.161 12.66,122.794 13.055,122.688 C13.622,122.536 13.975,122.926 14.003,123.032 L14.02,123.172 z" fill="#000000"/>
    <path d="M20.288,125.273 L20.059,125.335 C20.079,125.488 20.118,125.904 20.048,125.995 C20.005,126.049 19.487,126.188 19.392,126.214 L18.153,126.546 C18.692,125.73 18.877,125.478 19.197,125.053 C19.589,124.522 19.942,123.98 19.77,123.34 C19.552,122.525 18.704,122.218 17.842,122.449 C17.007,122.673 16.598,123.41 16.764,124.03 C16.856,124.374 17.155,124.33 17.222,124.312 C17.384,124.268 17.548,124.101 17.483,123.859 C17.451,123.738 17.341,123.515 16.99,123.608 C17.071,123.074 17.489,122.803 17.806,122.718 C18.48,122.538 18.971,122.969 19.117,123.515 C19.274,124.101 18.981,124.678 18.83,124.978 L17.636,127.016 C17.585,127.095 17.589,127.108 17.639,127.297 L20.415,126.553 z" fill="#000000"/>
    <path d="M63.498,17.608 C63.462,17.474 63.317,17.512 63.231,17.536 C63.125,17.564 63.086,17.574 63.051,17.635 C63.037,17.66 63.042,17.679 63.049,17.935 C63.063,18.756 62.893,19.008 62.652,19.073 C62.547,19.101 62.421,19.093 62.336,18.776 C62.297,18.632 62.28,18.492 62.283,18.347 L62.19,12.688 C62.192,12.543 62.184,12.514 62.184,12.514 C62.151,12.389 62.032,12.37 61.926,12.398 C61.888,12.408 61.878,12.411 61.862,12.426 L60.636,12.816 C60.504,12.862 60.333,12.918 60.405,13.187 C60.451,13.36 60.625,13.314 60.702,13.293 C60.808,13.265 60.981,13.219 61.111,13.204 L61.161,15.47 C60.981,15.374 60.606,15.248 60.096,15.384 C58.422,15.833 57.79,17.632 58.143,18.95 C58.461,20.134 59.454,20.301 60.253,20.087 C60.936,19.904 61.336,19.394 61.451,19.209 C61.956,19.63 62.591,19.46 62.697,19.432 C63.053,19.337 63.278,19.06 63.387,18.659 C63.525,18.21 63.511,17.656 63.498,17.608 z M61.234,18.782 C61.042,19.184 60.67,19.604 60.208,19.728 C59.612,19.887 59.424,19.381 59.367,19.169 C59.233,18.669 59.243,17.397 59.297,16.981 C59.407,16.198 59.814,15.831 60.209,15.726 C60.776,15.573 61.128,15.964 61.157,16.07 L61.174,16.21 z" fill="#000000"/>
    <path d="M67.555,19.595 L67.49,19.352 L67.234,19.421 C66.561,19.601 66.537,19.514 66.477,19.291 L65.478,15.559 C65.429,15.378 65.414,15.374 65.225,15.425 C64.908,15.965 64.296,16.136 64.02,16.21 L64.085,16.452 C64.247,16.409 64.691,16.29 65.011,16.002 L65.932,19.437 C65.991,19.66 66.015,19.747 65.341,19.928 L65.085,19.996 L65.15,20.239 L66.342,19.891 z" fill="#000000"/>
    <path d="M113.286,168.483 C113.255,168.367 113.159,168.393 113.082,168.414 C112.434,168.577 112.407,168.553 112.141,168.212 L110.102,165.571 C110.576,164.722 111.28,163.306 111.516,162.954 C111.733,162.649 112.036,162.32 112.606,162.136 C112.729,162.093 112.815,162.07 112.766,161.887 C112.766,161.887 112.738,161.781 112.613,161.815 C112.324,161.892 112.014,162.006 111.716,162.086 C111.36,162.181 110.987,162.25 110.64,162.343 C110.582,162.359 110.457,162.392 110.509,162.585 C110.527,162.652 110.583,162.668 110.653,162.66 C110.742,162.646 111.045,162.585 111.118,162.855 C111.154,162.989 111.081,163.143 111.028,163.25 L109.917,165.342 L108.596,163.644 L108.514,163.532 C108.499,163.474 108.613,163.247 109.007,163.1 C109.101,163.065 109.194,163.03 109.151,162.866 C109.12,162.751 109.004,162.781 108.975,162.789 C108.581,162.895 108.175,163.035 107.771,163.143 C107.53,163.207 106.926,163.338 106.685,163.403 C106.627,163.418 106.512,163.449 106.563,163.642 C106.592,163.748 106.688,163.722 106.813,163.688 C107.39,163.534 107.474,163.614 107.617,163.803 L109.472,166.183 L108.027,168.912 C107.982,168.976 107.975,168.988 107.93,169.051 C107.596,169.688 107.184,169.963 106.701,170.123 C106.579,170.166 106.492,170.19 106.541,170.372 C106.541,170.372 106.57,170.478 106.695,170.445 C106.983,170.367 107.293,170.253 107.591,170.174 C107.948,170.078 108.331,170.006 108.677,169.914 C108.735,169.898 108.85,169.867 108.799,169.675 C108.773,169.579 108.655,169.6 108.655,169.6 C108.566,169.613 108.262,169.674 108.19,169.405 C108.149,169.251 108.252,169.058 108.334,168.902 L109.037,167.6 L109.65,166.425 L111.239,168.464 L111.323,168.586 C111.343,168.663 111.204,168.875 110.839,169.015 C110.736,169.053 110.652,169.085 110.696,169.249 C110.727,169.364 110.833,169.336 110.871,169.326 L112.076,168.972 C112.317,168.908 112.911,168.779 113.152,168.715 C113.219,168.697 113.335,168.666 113.286,168.483 z" fill="#000000"/>
    <path d="M117.742,167.718 L117.513,167.779 C117.532,167.932 117.571,168.348 117.502,168.439 C117.459,168.494 116.94,168.633 116.846,168.658 L115.606,168.99 C116.146,168.174 116.331,167.922 116.65,167.497 C117.042,166.966 117.395,166.424 117.224,165.784 C117.005,164.969 116.158,164.662 115.295,164.893 C114.46,165.117 114.051,165.855 114.217,166.474 C114.309,166.818 114.608,166.774 114.675,166.756 C114.837,166.712 115.002,166.546 114.937,166.303 C114.904,166.182 114.794,165.959 114.444,166.053 C114.524,165.518 114.943,165.247 115.259,165.163 C115.933,164.982 116.424,165.414 116.57,165.959 C116.727,166.545 116.434,167.122 116.283,167.422 L115.09,169.461 C115.038,169.539 115.042,169.553 115.093,169.741 L117.868,168.998 z" fill="#000000"/>
    <path d="M145.21,110.578 C145.179,110.463 145.083,110.489 145.006,110.509 C144.358,110.672 144.331,110.649 144.065,110.307 L142.027,107.667 C142.5,106.818 143.204,105.402 143.44,105.05 C143.657,104.744 143.961,104.415 144.53,104.231 C144.653,104.188 144.74,104.165 144.691,103.982 C144.691,103.982 144.662,103.876 144.537,103.91 C144.248,103.987 143.939,104.101 143.64,104.181 C143.284,104.277 142.911,104.346 142.564,104.439 C142.507,104.454 142.382,104.488 142.433,104.68 C142.451,104.747 142.507,104.763 142.577,104.755 C142.666,104.741 142.969,104.681 143.042,104.95 C143.078,105.085 143.006,105.238 142.952,105.346 L141.841,107.438 L140.52,105.739 L140.438,105.627 C140.423,105.569 140.538,105.343 140.931,105.196 C141.025,105.16 141.119,105.125 141.075,104.961 C141.044,104.846 140.928,104.877 140.9,104.885 C140.505,104.99 140.099,105.13 139.695,105.238 C139.454,105.303 138.85,105.434 138.609,105.498 C138.551,105.514 138.436,105.545 138.488,105.737 C138.516,105.843 138.612,105.817 138.737,105.784 C139.315,105.629 139.398,105.71 139.542,105.898 L141.396,108.279 L139.951,111.007 C139.906,111.071 139.899,111.083 139.855,111.147 C139.52,111.783 139.109,112.058 138.626,112.219 C138.503,112.262 138.416,112.285 138.465,112.468 C138.465,112.468 138.494,112.574 138.619,112.54 C138.908,112.463 139.217,112.349 139.516,112.269 C139.872,112.174 140.255,112.102 140.601,112.009 C140.659,111.994 140.775,111.963 140.723,111.77 C140.697,111.674 140.579,111.695 140.579,111.695 C140.49,111.709 140.186,111.77 140.114,111.5 C140.073,111.346 140.176,111.153 140.258,110.997 L140.961,109.695 L141.575,108.52 L143.163,110.559 L143.247,110.681 C143.268,110.758 143.129,110.971 142.764,111.11 C142.66,111.148 142.576,111.181 142.62,111.344 C142.651,111.46 142.757,111.431 142.795,111.421 L144,111.067 C144.241,111.003 144.835,110.874 145.076,110.81 C145.143,110.792 145.259,110.761 145.21,110.578 z" fill="#000000"/>
    <path d="M149.779,111.097 L149.714,110.854 L149.458,110.923 C148.784,111.103 148.761,111.016 148.701,110.793 L147.701,107.062 C147.652,106.88 147.637,106.877 147.449,106.927 C147.131,107.467 146.52,107.638 146.244,107.712 L146.309,107.954 C146.47,107.911 146.915,107.792 147.235,107.504 L148.155,110.94 C148.215,111.162 148.238,111.249 147.565,111.43 L147.309,111.499 L147.374,111.741 L148.566,111.393 z" fill="#000000"/>
    <path d="M95.152,128.781 C95.152,128.323 94.793,127.914 94.175,127.914 C93.617,127.914 93.149,128.193 92.85,128.512 C92.611,128.054 92.043,127.914 91.685,127.914 C91.316,127.914 91.037,128.124 90.818,128.482 C90.579,128.871 90.439,129.409 90.439,129.469 C90.439,129.608 90.589,129.608 90.678,129.608 C90.788,129.608 90.828,129.608 90.878,129.558 C90.897,129.538 90.897,129.518 90.957,129.269 C91.147,128.512 91.366,128.273 91.635,128.273 C91.784,128.273 91.864,128.373 91.864,128.632 C91.864,128.811 91.834,128.921 91.724,129.389 L91.445,130.465 L91.246,131.282 C91.186,131.541 91.067,131.989 91.067,132.059 C91.067,132.268 91.226,132.497 91.535,132.497 C91.734,132.497 92.083,132.378 92.193,131.969 L92.89,129.17 C92.93,129.02 92.93,129 93.059,128.851 C93.289,128.562 93.657,128.273 94.155,128.273 C94.404,128.273 94.514,128.383 94.544,128.413 C93.996,128.522 93.936,129.01 93.936,129.11 C93.936,129.329 94.105,129.568 94.434,129.568 C94.773,129.568 95.152,129.289 95.152,128.781 z" fill="#6887FF"/>
    <path d="M116.453,126.459 C116.453,126.32 116.304,126.32 116.214,126.32 C116.104,126.32 116.065,126.32 116.015,126.37 C115.995,126.39 115.995,126.41 115.935,126.659 C115.736,127.436 115.517,127.655 115.258,127.655 C115.108,127.655 115.028,127.555 115.028,127.286 C115.028,127.117 115.068,126.957 115.168,126.559 L115.387,125.662 L115.616,124.776 C115.686,124.497 115.805,124.019 115.805,123.949 C115.805,123.74 115.646,123.51 115.337,123.51 C115.178,123.51 114.809,123.6 114.68,124.038 L114.112,126.31 C114.052,126.539 113.982,126.828 113.962,127.007 C113.783,127.246 113.395,127.655 112.886,127.655 C112.299,127.655 112.289,127.157 112.289,126.928 C112.289,126.32 112.598,125.543 112.876,124.825 C112.976,124.566 113.006,124.497 113.006,124.327 C113.006,123.75 112.428,123.431 111.88,123.431 C110.824,123.431 110.326,124.786 110.326,124.985 C110.326,125.124 110.475,125.124 110.565,125.124 C110.685,125.124 110.754,125.124 110.794,124.995 C111.123,123.889 111.661,123.789 111.82,123.789 C111.89,123.789 111.99,123.789 111.99,123.999 C111.99,124.228 111.87,124.507 111.83,124.626 C111.412,125.672 111.223,126.23 111.223,126.718 C111.223,127.854 112.219,128.014 112.807,128.014 C113.096,128.014 113.534,127.974 114.072,127.466 C114.391,127.954 114.969,128.014 115.208,128.014 C115.576,128.014 115.865,127.804 116.075,127.446 C116.324,127.047 116.453,126.509 116.453,126.459 z" fill="#000000"/>
    <path d="M48.833,40.746 C48.196,41.892 48.096,42.739 48.096,42.998 C48.096,43.406 48.226,43.446 48.385,43.446 C49.262,43.446 49.929,42.709 49.929,42.37 C49.929,42.271 49.85,42.251 49.81,42.251 C49.73,42.251 49.71,42.29 49.68,42.37 C49.571,42.569 49.122,42.769 48.445,42.779 C48.425,42.729 48.405,42.669 48.405,42.599 C48.405,42.44 48.634,41.503 49.122,40.726 C49.322,40.427 49.332,40.417 49.64,40.208 C50.019,39.949 50.577,39.581 50.627,39.531 C50.637,39.511 50.696,39.451 50.696,39.352 C50.696,39.142 50.477,39.092 50.378,39.092 C50.139,39.092 49.949,39.222 49.83,39.302 L46.014,41.842 C46.303,41.354 46.751,40.318 46.751,39.581 C46.751,39.341 46.751,39.132 46.472,39.132 C45.576,39.132 44.928,39.889 44.928,40.208 C44.928,40.268 44.968,40.328 45.048,40.328 C45.127,40.328 45.147,40.278 45.187,40.208 C45.267,40.029 45.735,39.8 46.412,39.8 C46.442,39.86 46.442,39.949 46.442,39.979 C46.442,40.517 45.745,42.021 45.466,42.211 C45.416,42.241 45.416,42.251 45.068,42.47 L44.41,42.908 C44.241,43.028 44.161,43.077 44.161,43.227 C44.161,43.476 44.45,43.486 44.48,43.486 C44.719,43.486 44.918,43.347 45.028,43.277 z" fill="#000000"/>
    <path d="M53.799,43.724 C53.799,43.18 53.352,42.636 52.585,42.475 C53.317,42.21 53.582,41.687 53.582,41.262 C53.582,40.711 52.948,40.299 52.174,40.299 C51.4,40.299 50.807,40.676 50.807,41.234 C50.807,41.471 50.96,41.604 51.17,41.604 C51.386,41.604 51.525,41.443 51.525,41.248 C51.525,41.046 51.386,40.899 51.17,40.885 C51.414,40.578 51.895,40.502 52.153,40.502 C52.467,40.502 52.906,40.655 52.906,41.262 C52.906,41.555 52.808,41.876 52.627,42.092 C52.397,42.357 52.202,42.371 51.853,42.392 C51.679,42.406 51.665,42.406 51.63,42.413 C51.63,42.413 51.56,42.426 51.56,42.503 C51.56,42.601 51.623,42.601 51.741,42.601 L52.118,42.601 C52.662,42.601 53.052,42.977 53.052,43.724 C53.052,44.588 52.55,44.846 52.146,44.846 C51.867,44.846 51.253,44.77 50.96,44.358 C51.288,44.344 51.365,44.114 51.365,43.968 C51.365,43.745 51.197,43.584 50.981,43.584 C50.786,43.584 50.591,43.703 50.591,43.989 C50.591,44.644 51.316,45.07 52.16,45.07 C53.129,45.07 53.799,44.421 53.799,43.724 z" fill="#000000"/>
    <path d="M59.646,42.011 C59.646,41.912 59.556,41.912 59.526,41.912 C59.426,41.912 59.416,41.952 59.387,42.091 C59.217,42.739 59.038,43.326 58.629,43.326 C58.36,43.326 58.33,43.067 58.33,42.868 C58.33,42.629 58.35,42.559 58.39,42.39 L59.825,36.632 C59.825,36.632 59.825,36.522 59.695,36.522 C59.546,36.522 58.599,36.612 58.43,36.632 C58.35,36.642 58.291,36.691 58.291,36.821 C58.291,36.94 58.38,36.94 58.53,36.94 C59.008,36.94 59.028,37.01 59.028,37.11 L58.998,37.309 L58.4,39.67 C58.221,39.302 57.932,39.033 57.484,39.033 C56.318,39.033 55.083,40.497 55.083,41.952 C55.083,42.888 55.631,43.546 56.408,43.546 C56.607,43.546 57.105,43.506 57.703,42.799 C57.783,43.217 58.131,43.546 58.609,43.546 C58.958,43.546 59.187,43.317 59.347,42.998 C59.516,42.639 59.646,42.011 59.646,42.011 z M58.251,40.298 L57.753,42.251 C57.703,42.43 57.703,42.45 57.553,42.619 C57.115,43.167 56.707,43.326 56.428,43.326 C55.929,43.326 55.79,42.779 55.79,42.39 C55.79,41.892 56.109,40.667 56.338,40.208 C56.647,39.62 57.095,39.252 57.494,39.252 C58.141,39.252 58.281,40.069 58.281,40.129 C58.281,40.188 58.261,40.248 58.251,40.298 z" fill="#000000"/>
    <path d="M63.81,41.892 C63.81,41.533 63.621,41.284 63.501,41.165 C63.232,40.886 62.943,40.836 62.505,40.746 C62.146,40.667 61.748,40.597 61.748,40.148 C61.748,39.86 61.987,39.252 62.863,39.252 C63.113,39.252 63.611,39.322 63.76,39.71 C63.481,39.72 63.282,39.939 63.282,40.158 C63.282,40.298 63.372,40.447 63.591,40.447 C63.81,40.447 64.049,40.278 64.049,39.889 C64.049,39.441 63.621,39.033 62.863,39.033 C61.548,39.033 61.18,40.049 61.18,40.487 C61.18,41.264 61.917,41.414 62.206,41.473 C62.724,41.573 63.242,41.683 63.242,42.231 C63.242,42.49 63.013,43.326 61.817,43.326 C61.678,43.326 60.911,43.326 60.682,42.799 C61.06,42.848 61.309,42.549 61.309,42.271 C61.309,42.041 61.15,41.922 60.941,41.922 C60.682,41.922 60.383,42.131 60.383,42.579 C60.383,43.147 60.951,43.546 61.807,43.546 C63.421,43.546 63.81,42.34 63.81,41.892 z" fill="#000000"/>
  </g>
</svg>
