<?xml version="1.0" encoding="UTF-8"?>
<!DOCTYPE svg PUBLIC "-//W3C//DTD SVG 1.1//EN" "http://www.w3.org/Graphics/SVG/1.1/DTD/svg11.dtd">
<svg version="1.1" xmlns="http://www.w3.org/2000/svg" xmlns:xlink="http://www.w3.org/1999/xlink" x="0" y="0" width="283.465" height="272.126" viewBox="0, 0, 283.465, 272.126">
  <g id="Background">
    <rect x="0" y="0" width="283.465" height="272.126" fill="#000000" fill-opacity="0"/>
  </g>
  <g id="Layer_1">
    <path d="M270.524,115.056 L13.961,263.183" fill-opacity="0" stroke="#666666" stroke-width="0.25" stroke-dasharray="1.5,0.5,0.5,0.5" stroke-linecap="round" stroke-linejoin="round"/>
    <path d="M13.961,115.056 L270.525,263.183" fill-opacity="0" stroke="#666666" stroke-width="0.25" stroke-dasharray="1.5,0.5,0.5,0.5" stroke-linecap="round" stroke-linejoin="round"/>
    <path d="M223.22,121.074 C223.795,120.743 223.576,120.25 223.004,120.051 C222.499,119.874 222.096,119.872 221.617,120.147 C221.043,120.48 221.262,120.973 221.832,121.171 C222.339,121.347 222.742,121.351 223.22,121.074 z" fill="#000000"/>
    <path d="M223.22,121.074 C223.795,120.743 223.576,120.25 223.004,120.051 C222.499,119.874 222.096,119.872 221.617,120.147 C221.043,120.48 221.262,120.973 221.832,121.171 C222.339,121.347 222.742,121.351 223.22,121.074 z" fill-opacity="0" stroke="#000000" stroke-width="0.25" stroke-linecap="round" stroke-linejoin="round"/>
    <path d="M62.869,143.293 C63.443,142.962 63.224,142.469 62.653,142.269 C62.147,142.093 61.744,142.091 61.265,142.367 C60.691,142.699 60.91,143.19 61.48,143.39 C61.987,143.566 62.39,143.57 62.869,143.293 z" fill="#000000"/>
    <path d="M62.869,143.293 C63.443,142.962 63.224,142.469 62.653,142.269 C62.147,142.093 61.744,142.091 61.265,142.367 C60.691,142.699 60.91,143.19 61.48,143.39 C61.987,143.566 62.39,143.57 62.869,143.293 z" fill-opacity="0" stroke="#000000" stroke-width="0.25" stroke-linecap="round" stroke-linejoin="round"/>
    <path d="M62.91,235.848 C63.485,235.517 63.266,235.024 62.694,234.826 C62.189,234.648 61.786,234.646 61.307,234.922 C60.733,235.254 60.952,235.746 61.522,235.946 C62.029,236.122 62.432,236.125 62.91,235.848 z" fill="#000000"/>
    <path d="M62.91,235.848 C63.485,235.517 63.266,235.024 62.694,234.826 C62.189,234.648 61.786,234.646 61.307,234.922 C60.733,235.254 60.952,235.746 61.522,235.946 C62.029,236.122 62.432,236.125 62.91,235.848 z" fill-opacity="0" stroke="#000000" stroke-width="0.25" stroke-linecap="round" stroke-linejoin="round"/>
    <path d="M143.045,189.583 C143.619,189.251 143.4,188.759 142.829,188.56 C142.323,188.383 141.92,188.381 141.441,188.656 C140.867,188.989 141.086,189.482 141.656,189.68 C142.163,189.856 142.566,189.859 143.045,189.583 z" fill="#000000"/>
    <path d="M143.045,189.583 C143.619,189.251 143.4,188.758 142.829,188.56 C142.323,188.382 141.92,188.381 141.441,188.656 C140.867,188.989 141.086,189.482 141.656,189.68 C142.163,189.856 142.566,189.859 143.045,189.583 z" fill-opacity="0" stroke="#000000" stroke-width="0.25" stroke-linecap="round" stroke-linejoin="round"/>
    <path d="M223.179,235.848 C223.753,235.517 223.534,235.024 222.963,234.826 C222.457,234.648 222.054,234.646 221.576,234.922 C221.001,235.254 221.22,235.746 221.79,235.946 C222.297,236.122 222.7,236.125 223.179,235.848 z" fill="#000000"/>
    <path d="M223.179,235.848 C223.753,235.517 223.534,235.024 222.963,234.826 C222.457,234.648 222.054,234.646 221.576,234.922 C221.001,235.254 221.22,235.746 221.79,235.946 C222.297,236.122 222.7,236.125 223.179,235.848 z" fill-opacity="0" stroke="#000000" stroke-width="0.25" stroke-linecap="round" stroke-linejoin="round"/>
    <path d="M223.22,143.293 C223.795,142.962 223.576,142.469 223.004,142.269 C222.499,142.093 222.096,142.091 221.617,142.367 C221.043,142.699 221.262,143.19 221.832,143.39 C222.339,143.566 222.742,143.57 223.22,143.293 z" fill="#000000"/>
    <path d="M223.22,143.293 C223.795,142.962 223.576,142.469 223.004,142.269 C222.499,142.093 222.096,142.091 221.617,142.367 C221.043,142.699 221.262,143.19 221.832,143.39 C222.339,143.566 222.742,143.57 223.22,143.293 z" fill-opacity="0" stroke="#000000" stroke-width="0.25" stroke-linecap="round" stroke-linejoin="round"/>
    <path d="M62.869,213.653 C63.443,213.322 63.224,212.829 62.653,212.629 C62.147,212.453 61.744,212.451 61.265,212.727 C60.691,213.059 60.91,213.551 61.48,213.751 C61.987,213.927 62.39,213.93 62.869,213.653 z" fill="#000000"/>
    <path d="M62.869,213.653 C63.443,213.322 63.224,212.829 62.653,212.629 C62.147,212.453 61.744,212.451 61.265,212.727 C60.691,213.059 60.91,213.551 61.48,213.751 C61.987,213.927 62.39,213.93 62.869,213.653 z" fill-opacity="0" stroke="#000000" stroke-width="0.25" stroke-linecap="round" stroke-linejoin="round"/>
    <path d="M62.869,121.074 C63.443,120.743 63.224,120.25 62.653,120.051 C62.147,119.874 61.744,119.872 61.265,120.147 C60.691,120.48 60.91,120.973 61.48,121.171 C61.987,121.347 62.39,121.351 62.869,121.074 z" fill="#000000"/>
    <path d="M62.869,121.074 C63.443,120.743 63.224,120.25 62.653,120.051 C62.147,119.874 61.744,119.872 61.265,120.147 C60.691,120.48 60.91,120.973 61.48,121.171 C61.987,121.347 62.39,121.351 62.869,121.074 z" fill-opacity="0" stroke="#000000" stroke-width="0.25" stroke-linecap="round" stroke-linejoin="round"/>
    <path d="M143.045,167.364 C143.619,167.032 143.4,166.54 142.829,166.34 C142.323,166.164 141.92,166.162 141.441,166.437 C140.867,166.77 141.086,167.263 141.656,167.461 C142.163,167.637 142.566,167.64 143.045,167.364 z" fill="#000000"/>
    <path d="M143.045,167.364 C143.619,167.032 143.4,166.54 142.829,166.34 C142.323,166.164 141.92,166.162 141.441,166.437 C140.867,166.77 141.086,167.263 141.656,167.461 C142.163,167.637 142.566,167.64 143.045,167.364 z" fill-opacity="0" stroke="#000000" stroke-width="0.25" stroke-linecap="round" stroke-linejoin="round"/>
    <path d="M51.804,120.611 L51.804,142.83" fill-opacity="0" stroke="#B8B8B8" stroke-width="0.5" stroke-dasharray="1,1" stroke-linecap="round" stroke-linejoin="round"/>
    <path d="M44.143,212.099 L44.143,234.319" fill-opacity="0" stroke="#B8B8B8" stroke-width="0.5" stroke-dasharray="1,1" stroke-linecap="round" stroke-linejoin="round"/>
    <path d="M76.213,212.099 L76.213,234.319" fill-opacity="0" stroke="#B8B8B8" stroke-width="0.5" stroke-dasharray="1,1" stroke-linecap="round" stroke-linejoin="round"/>
    <path d="M63.956,223.539 L63.956,245.758" fill-opacity="0" stroke="#B8B8B8" stroke-width="0.5" stroke-dasharray="1,1" stroke-linecap="round" stroke-linejoin="round"/>
    <path d="M158.278,166.901 L158.278,189.12" fill-opacity="0" stroke="#B8B8B8" stroke-width="0.5" stroke-dasharray="1,1" stroke-linecap="round" stroke-linejoin="round"/>
    <path d="M126.208,166.901 L126.208,189.12" fill-opacity="0" stroke="#B8B8B8" stroke-width="0.5" stroke-dasharray="1,1" stroke-linecap="round" stroke-linejoin="round"/>
    <path d="M206.383,120.604 L206.383,142.823" fill-opacity="0" stroke="#B8B8B8" stroke-width="0.5" stroke-dasharray="1,1" stroke-linecap="round" stroke-linejoin="round"/>
    <path d="M238.454,120.604 L238.454,142.823" fill-opacity="0" stroke="#B8B8B8" stroke-width="0.5" stroke-dasharray="1,1" stroke-linecap="round" stroke-linejoin="round"/>
    <path d="M240.343,212.099 L240.343,234.319" fill-opacity="0" stroke="#B8B8B8" stroke-width="0.5" stroke-dasharray="1,1" stroke-linecap="round" stroke-linejoin="round"/>
    <path d="M208.273,212.099 L208.273,234.319" fill-opacity="0" stroke="#B8B8B8" stroke-width="0.5" stroke-dasharray="1,1" stroke-linecap="round" stroke-linejoin="round"/>
    <path d="M220.53,223.539 L220.53,245.758" fill-opacity="0" stroke="#B8B8B8" stroke-width="0.5" stroke-dasharray="1,1" stroke-linecap="round" stroke-linejoin="round"/>
    <path d="M220.53,205.023 L220.53,223.538" fill-opacity="0" stroke="#B8B8B8" stroke-width="0.5" stroke-dasharray="1,1" stroke-linecap="round" stroke-linejoin="round"/>
    <path d="M72.329,120.611 L72.329,142.83" fill-opacity="0" stroke="#B8B8B8" stroke-width="0.5" stroke-dasharray="1,1" stroke-linecap="round" stroke-linejoin="round"/>
    <path d="M142.243,198.378 L158.278,189.12 L142.243,179.862 L126.208,189.12 L142.243,198.378 z" fill-opacity="0" stroke="#6887FF" stroke-width="0.75" stroke-linecap="round" stroke-linejoin="round"/>
    <path d="M142.243,189.05 L122.087,200.686" fill-opacity="0" stroke="#000000" stroke-width="0.5" stroke-linecap="round"/>
    <path d="M121.337,199.387 L118.623,202.686 L122.837,201.985 M122.087,200.686 L118.623,202.686" fill-opacity="0" stroke="#000000" stroke-width="0.5"/>
    <path d="M142.243,189.05 L162.398,200.686" fill-opacity="0" stroke="#000000" stroke-width="0.5" stroke-linecap="round"/>
    <path d="M161.648,201.985 L165.863,202.686 L163.148,199.387 M162.398,200.686 L165.863,202.686" fill-opacity="0" stroke="#000000" stroke-width="0.5"/>
    <path d="M62.067,148.755 L51.804,142.83 L62.067,136.905 L72.329,142.83 L62.067,148.755 z" fill-opacity="0" stroke="#000000" stroke-width="0.75" stroke-linecap="round" stroke-linejoin="round"/>
    <path d="M62.067,126.536 L62.067,142.683" fill-opacity="0" stroke="#666666" stroke-width="0.5" stroke-dasharray="1,1" stroke-linecap="round" stroke-linejoin="round"/>
    <path d="M62.067,126.536 L51.804,120.611 L51.804,35.439 L62.067,41.363 L62.067,126.536 z" fill="#FFFFFF"/>
    <path d="M62.067,126.536 L51.804,120.611 L51.804,35.439 L62.067,41.363 L62.067,126.536 z" fill-opacity="0" stroke="#000000" stroke-width="0.5" stroke-linecap="round" stroke-linejoin="round"/>
    <path d="M72.329,120.611 L62.067,126.536 L62.067,41.363 L72.329,35.438 L72.329,120.611 z" fill="#FFFFFF"/>
    <path d="M72.329,120.611 L62.067,126.536 L62.067,41.363 L72.329,35.438 L72.329,120.611 z" fill-opacity="0" stroke="#000000" stroke-width="0.5" stroke-linecap="round" stroke-linejoin="round"/>
    <path d="M62.067,41.363 L51.804,35.439 L62.067,29.514 L72.329,35.439 L62.067,41.363 z" fill="#FFFFFF"/>
    <path d="M62.067,41.363 L51.804,35.439 L62.067,29.514 L72.329,35.439 L62.067,41.363 z" fill-opacity="0" stroke="#000000" stroke-width="0.5" stroke-linecap="round" stroke-linejoin="round"/>
    <path d="M62.067,126.536 L51.804,120.611 L51.804,35.439 L62.067,29.514 L72.329,35.439 L72.329,120.611 L62.067,126.536 z" fill-opacity="0" stroke="#000000" stroke-width="1.25" stroke-linecap="round" stroke-linejoin="round"/>
    <path d="M62.869,35.901 C63.443,35.57 63.224,35.077 62.653,34.879 C62.147,34.701 61.744,34.699 61.265,34.975 C60.691,35.307 60.91,35.8 61.48,35.999 C61.987,36.175 62.39,36.178 62.869,35.901 z" fill="#000000"/>
    <path d="M62.869,35.901 C63.443,35.57 63.224,35.077 62.653,34.879 C62.147,34.701 61.744,34.699 61.265,34.975 C60.691,35.307 60.91,35.8 61.48,35.999 C61.987,36.175 62.39,36.178 62.869,35.901 z" fill-opacity="0" stroke="#000000" stroke-width="0.25" stroke-linecap="round" stroke-linejoin="round"/>
    <path d="M62.067,35.438 L62.067,16.923" fill-opacity="0" stroke="#666666" stroke-width="0.5" stroke-dasharray="1.5,1" stroke-linecap="round" stroke-linejoin="round"/>
    <path d="M230.436,138.201 C230.761,138.54 231.086,138.88 231.412,139.215 C232.067,139.889 232.726,140.548 233.433,141.185 C234.142,141.82 234.899,142.43 235.747,142.769 C236.595,143.107 237.534,143.174 238.446,142.825" fill-opacity="0" stroke="#000000" stroke-width="0.75" stroke-linecap="round" stroke-linejoin="round"/>
    <path d="M222.426,133.576 C223.335,133.232 224.271,133.295 225.117,133.631 C225.965,133.967 226.724,134.576 227.432,135.212 C228.141,135.847 228.8,136.508 229.455,137.181 C229.783,137.519 230.109,137.859 230.436,138.202" fill-opacity="0" stroke="#000000" stroke-width="0.75" stroke-linecap="round" stroke-linejoin="round"/>
    <path d="M222.419,133.579 C222.42,133.578 222.424,133.578 222.427,133.576" fill-opacity="0" stroke="#000000" stroke-width="0.75" stroke-linecap="round" stroke-linejoin="round"/>
    <path d="M214.401,138.201 C214.863,138.155 215.326,138.11 215.783,138.041 C216.699,137.905 217.598,137.681 218.46,137.327 C219.323,136.975 220.148,136.494 220.777,135.823 C221.406,135.153 221.838,134.295 222.419,133.579" fill-opacity="0" stroke="#000000" stroke-width="0.75" stroke-linecap="round" stroke-linejoin="round"/>
    <path d="M206.383,142.823 C206.964,142.106 207.396,141.249 208.025,140.578 C208.654,139.908 209.479,139.428 210.342,139.074 C211.204,138.721 212.103,138.497 213.019,138.361 C213.476,138.293 213.939,138.247 214.401,138.201" fill-opacity="0" stroke="#000000" stroke-width="0.75" stroke-linecap="round" stroke-linejoin="round"/>
    <path d="M222.409,152.082 C222.41,152.085 222.414,152.087 222.415,152.09" fill-opacity="0" stroke="#000000" stroke-width="0.75" stroke-linecap="round" stroke-linejoin="round"/>
    <path d="M214.401,147.459 C214.862,147.505 215.324,147.55 215.782,147.619 C216.697,147.755 217.596,147.979 218.46,148.333 C219.324,148.686 220.152,149.168 220.779,149.838 C221.404,150.509 221.833,151.366 222.409,152.083" fill-opacity="0" stroke="#000000" stroke-width="0.75" stroke-linecap="round" stroke-linejoin="round"/>
    <path d="M206.394,142.836 C206.968,143.551 207.394,144.407 208.018,145.076 C208.645,145.748 209.472,146.23 210.336,146.583 C211.2,146.937 212.098,147.163 213.015,147.299 C213.474,147.367 213.938,147.414 214.402,147.459" fill-opacity="0" stroke="#000000" stroke-width="0.75" stroke-linecap="round" stroke-linejoin="round"/>
    <path d="M206.383,142.823 C206.387,142.828 206.39,142.831 206.395,142.836" fill-opacity="0" stroke="#000000" stroke-width="0.75" stroke-linecap="round" stroke-linejoin="round"/>
    <path d="M222.419,152.095 C223.332,152.433 224.271,152.367 225.119,152.029 C225.969,151.69 226.726,151.081 227.435,150.445 C228.143,149.81 228.803,149.149 229.457,148.476 C230.111,147.802 230.761,147.116 231.415,146.442 C232.07,145.769 232.729,145.108 233.438,144.473 C234.145,143.837 234.903,143.228 235.753,142.889 C236.601,142.551 237.54,142.485 238.454,142.823" fill-opacity="0" stroke="#000000" stroke-width="0.75" stroke-linecap="round" stroke-linejoin="round"/>
    <path d="M222.419,129.876 L222.419,142.683" fill-opacity="0" stroke="#666666" stroke-width="0.5" stroke-dasharray="1,1" stroke-linecap="round" stroke-linejoin="round"/>
    <path d="M206.383,46.555 C206.964,47.271 207.396,48.129 208.025,48.799 C208.654,49.468 209.479,49.95 210.342,50.304 C211.204,50.657 212.104,50.881 213.019,51.017 C213.934,51.153 214.867,51.201 215.783,51.337 C216.699,51.473 217.598,51.697 218.46,52.049 C219.323,52.403 220.148,52.884 220.777,53.555 C221.406,54.223 221.838,55.083 222.419,55.798 C219.126,65.004 215.951,74.246 213.031,83.579 C209.228,71.425 206.465,59.457 206.383,46.555 z" fill="#FFFFFF"/>
    <path d="M206.383,46.555 C206.964,47.271 207.396,48.129 208.025,48.799 C208.654,49.468 209.479,49.95 210.342,50.304 C211.204,50.657 212.104,50.881 213.019,51.017 C213.934,51.153 214.867,51.201 215.783,51.337 C216.699,51.473 217.598,51.697 218.46,52.049 C219.323,52.403 220.148,52.884 220.777,53.555 C221.406,54.223 221.838,55.083 222.419,55.798 C219.126,65.004 215.951,74.246 213.031,83.579 C209.228,71.425 206.465,59.457 206.383,46.555 z" fill-opacity="0" stroke="#000000" stroke-width="0.5" stroke-linecap="round" stroke-linejoin="round"/>
    <path d="M238.454,46.555 C238.332,75.804 232.111,102.62 222.419,129.876 C221.838,129.158 221.411,128.296 220.783,127.623 C220.156,126.95 219.327,126.468 218.464,126.115 C217.601,125.761 216.702,125.535 215.785,125.399 C214.868,125.263 213.934,125.215 213.017,125.079 C212.1,124.943 211.201,124.718 210.339,124.366 C209.475,124.011 208.647,123.529 208.019,122.857 C207.391,122.185 206.964,121.321 206.383,120.604 C206.465,107.7 209.228,95.734 213.031,83.579 C215.951,74.246 219.126,65.004 222.419,55.798 C223.331,56.145 224.27,56.083 225.118,55.747 C225.967,55.411 226.726,54.799 227.435,54.164 C228.143,53.529 228.803,52.868 229.457,52.195 C230.111,51.521 230.761,50.833 231.415,50.16 C232.07,49.486 232.729,48.825 233.438,48.188 C234.147,47.553 234.905,46.944 235.755,46.606 C236.603,46.27 237.542,46.208 238.454,46.555 z" fill="#FFFFFF"/>
    <path d="M238.454,46.555 C238.332,75.804 232.111,102.62 222.419,129.876 C221.838,129.158 221.411,128.296 220.783,127.623 C220.156,126.95 219.327,126.468 218.464,126.115 C217.601,125.761 216.702,125.535 215.785,125.399 C214.868,125.263 213.934,125.215 213.017,125.079 C212.1,124.943 211.201,124.718 210.339,124.366 C209.475,124.011 208.647,123.529 208.019,122.857 C207.391,122.185 206.964,121.321 206.383,120.604 C206.465,107.7 209.228,95.734 213.031,83.579 C215.951,74.246 219.126,65.004 222.419,55.798 C223.331,56.145 224.27,56.083 225.118,55.747 C225.967,55.411 226.726,54.799 227.435,54.164 C228.143,53.529 228.803,52.868 229.457,52.195 C230.111,51.521 230.761,50.833 231.415,50.16 C232.07,49.486 232.729,48.825 233.438,48.188 C234.147,47.553 234.905,46.944 235.755,46.606 C236.603,46.27 237.542,46.208 238.454,46.555 z" fill-opacity="0" stroke="#000000" stroke-width="0.5" stroke-linecap="round" stroke-linejoin="round"/>
    <path d="M222.419,129.876 C223.332,130.214 224.271,130.148 225.119,129.81 C225.969,129.471 226.726,128.862 227.435,128.226 C228.143,127.591 228.803,126.93 229.457,126.257 C230.111,125.583 230.761,124.897 231.415,124.223 C232.07,123.55 232.729,122.889 233.438,122.254 C234.145,121.618 234.903,121.009 235.753,120.67 C236.601,120.332 237.54,120.266 238.454,120.604 C238.401,108.116 237.286,95.868 235.049,83.58 C232.164,99.434 227.809,114.719 222.419,129.876 z" fill="#FFFFFF"/>
    <path d="M222.419,129.876 C223.332,130.214 224.271,130.148 225.119,129.81 C225.969,129.471 226.726,128.862 227.435,128.226 C228.143,127.591 228.803,126.93 229.457,126.257 C230.111,125.583 230.761,124.897 231.415,124.223 C232.07,123.55 232.729,122.889 233.438,122.254 C234.145,121.618 234.903,121.009 235.753,120.67 C236.601,120.332 237.54,120.266 238.454,120.604 C238.401,108.116 237.286,95.868 235.049,83.58 C232.164,99.434 227.809,114.719 222.419,129.876 z" fill-opacity="0" stroke="#000000" stroke-width="0.5" stroke-linecap="round" stroke-linejoin="round"/>
    <path d="M206.383,46.555 C206.964,47.271 207.396,48.129 208.025,48.799 C208.654,49.468 209.479,49.95 210.342,50.303 C211.204,50.657 212.103,50.881 213.019,51.017 C213.934,51.153 214.867,51.201 215.783,51.337 C216.699,51.473 217.598,51.697 218.46,52.049 C219.323,52.403 220.148,52.884 220.777,53.555 C221.406,54.223 221.838,55.083 222.419,55.798 C223.331,56.145 224.27,56.083 225.118,55.747 C225.967,55.411 226.726,54.799 227.435,54.164 C228.143,53.529 228.803,52.868 229.457,52.195 C230.111,51.521 230.761,50.833 231.415,50.16 C232.07,49.486 232.729,48.825 233.438,48.188 C234.147,47.553 234.905,46.944 235.755,46.606 C236.603,46.27 237.542,46.208 238.454,46.555 C237.54,46.892 236.601,46.827 235.753,46.489 C234.903,46.15 234.147,45.54 233.438,44.905 C232.729,44.27 232.07,43.609 231.415,42.935 C230.761,42.262 230.111,41.576 229.457,40.902 C228.803,40.228 228.143,39.567 227.435,38.932 C226.726,38.297 225.969,37.688 225.119,37.348 C224.271,37.011 223.332,36.945 222.419,37.283 C221.838,38.001 221.411,38.863 220.783,39.535 C220.156,40.208 219.327,40.691 218.463,41.044 C217.601,41.398 216.702,41.622 215.785,41.758 C214.868,41.896 213.934,41.942 213.017,42.078 C212.1,42.215 211.201,42.439 210.339,42.793 C209.475,43.147 208.647,43.63 208.019,44.302 C207.391,44.974 206.964,45.836 206.383,46.555 z" fill="#FFFFFF"/>
    <path d="M206.383,46.555 C206.964,47.271 207.396,48.129 208.025,48.799 C208.654,49.468 209.479,49.95 210.342,50.303 C211.204,50.657 212.103,50.881 213.019,51.017 C213.934,51.153 214.867,51.201 215.783,51.337 C216.699,51.473 217.598,51.697 218.46,52.049 C219.323,52.403 220.148,52.884 220.777,53.555 C221.406,54.223 221.838,55.083 222.419,55.798 C223.331,56.145 224.27,56.083 225.118,55.747 C225.967,55.411 226.726,54.799 227.435,54.164 C228.143,53.529 228.803,52.868 229.457,52.195 C230.111,51.521 230.761,50.833 231.415,50.16 C232.07,49.486 232.729,48.825 233.438,48.188 C234.147,47.553 234.905,46.944 235.755,46.606 C236.603,46.27 237.542,46.208 238.454,46.555 C237.54,46.892 236.601,46.827 235.753,46.489 C234.903,46.15 234.147,45.54 233.438,44.905 C232.729,44.27 232.07,43.609 231.415,42.935 C230.761,42.262 230.111,41.576 229.457,40.902 C228.803,40.228 228.143,39.567 227.435,38.932 C226.726,38.297 225.969,37.688 225.119,37.348 C224.271,37.011 223.332,36.945 222.419,37.283 C221.838,38.001 221.411,38.863 220.783,39.535 C220.156,40.208 219.327,40.691 218.463,41.044 C217.601,41.398 216.702,41.622 215.785,41.758 C214.868,41.896 213.934,41.942 213.017,42.078 C212.1,42.215 211.201,42.439 210.339,42.793 C209.475,43.147 208.647,43.63 208.019,44.302 C207.391,44.974 206.964,45.836 206.383,46.555 z" fill-opacity="0" stroke="#000000" stroke-width="0.5" stroke-linecap="round" stroke-linejoin="round"/>
    <path d="M222.419,37.283 C223.332,36.945 224.271,37.011 225.12,37.348 C225.969,37.688 226.726,38.297 227.435,38.932 C228.144,39.568 228.803,40.228 229.457,40.902 C230.112,41.576 230.761,42.262 231.416,42.936 C232.07,43.609 232.729,44.27 233.438,44.905 C234.145,45.54 234.904,46.15 235.753,46.488 C236.601,46.827 237.54,46.892 238.454,46.555 C238.401,59.043 237.286,71.291 235.049,83.579 C237.286,95.867 238.401,108.117 238.454,120.604 C237.54,120.265 236.601,120.332 235.753,120.67 C234.904,121.008 234.145,121.619 233.438,122.254 C232.729,122.888 232.07,123.549 231.416,124.222 C230.761,124.897 230.112,125.584 229.457,126.257 C228.803,126.931 228.144,127.592 227.435,128.227 C226.726,128.862 225.969,129.472 225.12,129.809 C224.271,130.148 223.332,130.214 222.419,129.876 C221.838,129.158 221.411,128.296 220.783,127.622 C220.156,126.95 219.327,126.468 218.463,126.115 C217.601,125.761 216.702,125.536 215.785,125.4 C214.868,125.264 213.934,125.216 213.017,125.08 C212.1,124.944 211.201,124.718 210.339,124.365 C209.475,124.011 208.647,123.529 208.019,122.857 C207.391,122.185 206.964,121.321 206.383,120.604 C206.465,107.701 209.228,95.734 213.031,83.579 C209.228,71.425 206.465,59.457 206.383,46.555 C206.964,45.836 207.391,44.974 208.019,44.302 C208.647,43.63 209.475,43.147 210.339,42.793 C211.201,42.44 212.1,42.216 213.017,42.078 C213.934,41.942 214.868,41.896 215.785,41.758 C216.702,41.622 217.601,41.398 218.463,41.044 C219.327,40.691 220.156,40.208 220.783,39.536 C221.411,38.864 221.838,38.001 222.419,37.283 z" fill-opacity="0" stroke="#000000" stroke-width="1.25" stroke-linecap="round" stroke-linejoin="round"/>
    <path d="M223.22,47.011 C223.795,46.679 223.576,46.187 223.004,45.988 C222.499,45.811 222.096,45.809 221.617,46.084 C221.043,46.417 221.262,46.91 221.832,47.108 C222.339,47.284 222.742,47.287 223.22,47.011 z" fill="#000000"/>
    <path d="M223.22,47.011 C223.795,46.679 223.576,46.187 223.004,45.988 C222.499,45.811 222.096,45.809 221.617,46.084 C221.043,46.417 221.262,46.91 221.832,47.108 C222.339,47.284 222.742,47.287 223.22,47.011 z" fill-opacity="0" stroke="#000000" stroke-width="0.25" stroke-linecap="round" stroke-linejoin="round"/>
    <path d="M222.419,46.548 L222.419,28.032" fill-opacity="0" stroke="#666666" stroke-width="0.5" stroke-dasharray="1.5,1" stroke-linecap="round" stroke-linejoin="round"/>
    <path d="M63.956,227.242 C62.999,227.538 62.042,227.839 61.09,228.149 C60.137,228.459 59.186,228.778 58.239,229.101 C57.29,229.426 56.345,229.755 55.399,230.091 C54.455,230.427 53.513,230.768 52.572,231.112 C51.631,231.458 50.692,231.808 49.754,232.16 C48.817,232.514 47.881,232.871 46.945,233.231 C46.01,233.591 45.076,233.955 44.143,234.319 C44.986,235.015 45.841,235.699 46.713,236.36 C47.585,237.021 48.474,237.66 49.385,238.267 C50.294,238.875 51.223,239.455 52.161,240.018 C53.1,240.579 54.05,241.125 55.014,241.643 C55.977,242.162 56.954,242.653 57.942,243.128 C58.927,243.604 59.921,244.061 60.926,244.496 C61.929,244.933 62.943,245.344 63.956,245.757 C64.562,245.239 65.17,244.72 65.775,244.197 C66.378,243.675 66.98,243.149 67.578,242.619 C68.177,242.09 68.772,241.557 69.364,241.021 C69.956,240.485 70.545,239.944 71.129,239.399 C71.711,238.853 72.289,238.301 72.862,237.744 C73.436,237.188 74.004,236.626 74.562,236.055 C75.121,235.485 75.67,234.904 76.214,234.319 C75.566,234.106 74.916,233.898 74.274,233.667 C73.633,233.437 72.998,233.186 72.37,232.919 C71.743,232.653 71.121,232.371 70.513,232.064 C69.905,231.757 69.31,231.423 68.726,231.071 C68.142,230.719 67.569,230.346 67.017,229.946 C66.465,229.546 65.932,229.119 65.423,228.666 C64.914,228.213 64.428,227.733 63.956,227.242 z" fill-opacity="0" stroke="#000000" stroke-width="0.75" stroke-linecap="round" stroke-linejoin="round"/>
    <path d="M62.109,235.185 C62.089,228.279 62.08,221.372 62.069,214.466 C62.057,207.513 61.617,200.708 60.145,193.873 C57.254,180.438 50.664,167.581 38.024,160.247" fill-opacity="0" stroke="#666666" stroke-width="0.5" stroke-dasharray="1.5,1" stroke-linecap="round" stroke-linejoin="round"/>
    <path d="M76.213,212.1 C75.918,212.415 75.622,212.732 75.328,213.047 C75.006,213.378 74.686,213.708 74.366,214.039 C74.021,214.383 73.675,214.728 73.33,215.074 C72.958,215.432 72.587,215.792 72.218,216.152 C71.821,216.525 71.426,216.9 71.029,217.274 C70.608,217.663 70.187,218.052 69.765,218.439 C69.318,218.844 68.874,219.245 68.426,219.648 C67.955,220.066 67.483,220.485 67.011,220.901 C66.515,221.335 66.018,221.767 65.522,222.199 C65,222.645 64.478,223.092 63.955,223.54 C63.928,206.444 59.286,185.69 42.384,175.86 C42.717,174.992 43.05,174.127 43.381,173.261 C43.696,172.426 44.01,171.589 44.325,170.754 C44.621,169.951 44.917,169.146 45.214,168.341 C45.493,167.567 45.771,166.794 46.05,166.02 C46.31,165.277 46.571,164.535 46.832,163.792 C47.075,163.08 47.318,162.368 47.562,161.656 C47.787,160.975 48.013,160.295 48.238,159.613 C48.445,158.964 48.653,158.312 48.861,157.663 C49.05,157.044 49.24,156.423 49.429,155.803 C49.602,155.216 49.773,154.628 49.946,154.039 C70.528,166.01 76.179,191.282 76.213,212.1 z" fill="#FFFFFF"/>
    <path d="M76.213,212.1 C75.918,212.415 75.622,212.732 75.328,213.047 C75.006,213.378 74.686,213.708 74.366,214.039 C74.021,214.383 73.675,214.728 73.33,215.074 C72.958,215.432 72.587,215.792 72.218,216.152 C71.821,216.525 71.426,216.9 71.029,217.274 C70.608,217.663 70.187,218.051 69.765,218.439 C69.318,218.844 68.874,219.245 68.426,219.648 C67.955,220.066 67.483,220.485 67.011,220.901 C66.515,221.335 66.018,221.767 65.522,222.199 C65,222.645 64.478,223.092 63.955,223.54 C63.928,206.443 59.286,185.69 42.384,175.859 C42.717,174.992 43.05,174.127 43.381,173.261 C43.696,172.426 44.01,171.589 44.325,170.754 C44.621,169.951 44.917,169.146 45.214,168.341 C45.493,167.567 45.771,166.794 46.05,166.02 C46.31,165.277 46.571,164.535 46.832,163.792 C47.075,163.08 47.318,162.368 47.562,161.656 C47.787,160.975 48.013,160.295 48.238,159.613 C48.445,158.964 48.653,158.312 48.861,157.663 C49.05,157.044 49.24,156.423 49.429,155.803 C49.602,155.216 49.773,154.628 49.946,154.039 C70.528,166.01 76.179,191.282 76.213,212.1 z" fill-opacity="0" stroke="#000000" stroke-width="0.5" stroke-linecap="round" stroke-linejoin="round"/>
    <path d="M63.956,223.539 C63.182,223.224 62.409,222.907 61.634,222.592 C60.886,222.26 60.137,221.931 59.39,221.6 C58.665,221.256 57.942,220.91 57.218,220.564 C56.521,220.206 55.822,219.846 55.124,219.486 C54.45,219.113 53.778,218.739 53.105,218.364 C52.457,217.976 51.809,217.587 51.161,217.198 C50.538,216.796 49.916,216.393 49.294,215.99 C48.695,215.572 48.098,215.155 47.5,214.736 C46.929,214.304 46.356,213.872 45.785,213.44 C45.238,212.993 44.69,212.547 44.143,212.099 C44.116,195.004 39.473,174.251 22.572,164.42 C23.386,165.156 24.209,165.886 25.055,166.588 C25.902,167.289 26.77,167.963 27.662,168.606 C28.554,169.247 29.468,169.859 30.402,170.438 C31.335,171.019 32.287,171.569 33.257,172.087 C34.226,172.606 35.212,173.092 36.214,173.544 C37.217,173.995 38.234,174.411 39.265,174.792 C40.297,175.174 41.338,175.521 42.385,175.859 C59.287,185.689 63.929,206.444 63.956,223.539 z" fill="#FFFFFF"/>
    <path d="M63.956,223.539 C63.182,223.223 62.409,222.907 61.634,222.591 C60.886,222.26 60.137,221.931 59.39,221.6 C58.665,221.255 57.942,220.91 57.218,220.564 C56.521,220.206 55.822,219.846 55.124,219.486 C54.45,219.113 53.778,218.739 53.105,218.364 C52.457,217.975 51.809,217.587 51.161,217.198 C50.538,216.796 49.916,216.393 49.294,215.99 C48.695,215.572 48.098,215.155 47.5,214.735 C46.929,214.303 46.356,213.871 45.785,213.439 C45.238,212.993 44.69,212.547 44.143,212.099 C44.116,195.004 39.473,174.251 22.572,164.42 C23.386,165.156 24.209,165.886 25.055,166.588 C25.902,167.289 26.77,167.963 27.662,168.606 C28.554,169.247 29.468,169.859 30.402,170.438 C31.335,171.019 32.287,171.569 33.257,172.087 C34.226,172.606 35.212,173.092 36.214,173.544 C37.217,173.995 38.234,174.411 39.265,174.792 C40.297,175.174 41.338,175.521 42.385,175.859 C59.287,185.689 63.929,206.444 63.956,223.539 z" fill-opacity="0" stroke="#000000" stroke-width="0.5" stroke-linecap="round" stroke-linejoin="round"/>
    <path d="M49.945,154.039 C49.774,154.627 49.601,155.216 49.43,155.805 C49.239,156.424 49.051,157.043 48.86,157.663 C48.654,158.312 48.446,158.963 48.238,159.613 C48.012,160.295 47.788,160.975 47.563,161.656 C47.319,162.368 47.076,163.08 46.833,163.792 C46.572,164.535 46.311,165.277 46.051,166.021 C45.771,166.794 45.492,167.568 45.214,168.341 C44.918,169.146 44.62,169.951 44.324,170.754 C44.011,171.591 43.695,172.426 43.382,173.261 C43.049,174.127 42.716,174.992 42.385,175.859 C41.339,175.52 40.295,175.173 39.265,174.792 C38.235,174.41 37.217,173.995 36.214,173.543 C35.212,173.091 34.227,172.605 33.257,172.087 C32.287,171.568 31.335,171.019 30.403,170.439 C29.468,169.858 28.555,169.248 27.662,168.605 C26.771,167.963 25.9,167.29 25.055,166.587 C24.209,165.887 23.387,165.157 22.571,164.419 C23.263,163.565 23.956,162.709 24.652,161.858 C25.348,161.007 26.047,160.157 26.751,159.312 C27.455,158.466 28.161,157.623 28.873,156.784 C29.583,155.944 30.299,155.109 31.02,154.279 C31.742,153.448 32.47,152.623 33.203,151.802 C33.935,150.983 34.673,150.167 35.422,149.36 C36.169,148.554 36.926,147.755 37.687,146.962 C38.14,147.483 38.598,147.999 39.081,148.49 C39.564,148.983 40.073,149.448 40.606,149.887 C41.139,150.323 41.695,150.73 42.273,151.107 C42.851,151.483 43.449,151.827 44.063,152.139 C44.678,152.451 45.31,152.731 45.955,152.975 C46.599,153.218 47.259,153.424 47.926,153.597 C48.593,153.77 49.268,153.907 49.945,154.039 z" fill="#FFFFFF"/>
    <path d="M49.945,154.039 C49.774,154.627 49.601,155.216 49.43,155.805 C49.239,156.424 49.051,157.043 48.86,157.663 C48.654,158.312 48.446,158.963 48.238,159.613 C48.012,160.295 47.788,160.975 47.563,161.656 C47.319,162.368 47.076,163.08 46.833,163.792 C46.572,164.535 46.311,165.277 46.051,166.021 C45.771,166.794 45.492,167.568 45.214,168.341 C44.918,169.146 44.62,169.951 44.324,170.754 C44.011,171.59 43.695,172.426 43.382,173.261 C43.049,174.127 42.716,174.992 42.385,175.859 C41.339,175.52 40.295,175.173 39.265,174.792 C38.235,174.41 37.217,173.995 36.214,173.543 C35.212,173.091 34.227,172.605 33.257,172.087 C32.287,171.568 31.335,171.019 30.403,170.439 C29.468,169.858 28.555,169.248 27.662,168.605 C26.771,167.963 25.9,167.29 25.055,166.587 C24.209,165.887 23.387,165.157 22.571,164.419 C23.263,163.565 23.956,162.709 24.652,161.858 C25.348,161.007 26.047,160.157 26.751,159.312 C27.455,158.466 28.161,157.623 28.873,156.784 C29.583,155.944 30.299,155.109 31.02,154.279 C31.742,153.448 32.47,152.623 33.203,151.802 C33.935,150.983 34.673,150.167 35.422,149.36 C36.169,148.554 36.926,147.755 37.687,146.962 C38.14,147.483 38.598,147.999 39.081,148.49 C39.564,148.983 40.073,149.448 40.606,149.887 C41.139,150.323 41.695,150.73 42.273,151.107 C42.851,151.483 43.449,151.827 44.063,152.139 C44.678,152.451 45.31,152.731 45.955,152.975 C46.599,153.218 47.259,153.424 47.926,153.597 C48.593,153.77 49.268,153.907 49.945,154.039 z" fill-opacity="0" stroke="#000000" stroke-width="0.5" stroke-linecap="round" stroke-linejoin="round"/>
    <path d="M30.07,170.23 C40.964,181.221 44.119,197.841 44.143,212.099 C44.69,212.545 45.238,212.993 45.785,213.44 C46.356,213.872 46.929,214.304 47.502,214.736 C48.098,215.153 48.695,215.571 49.294,215.989 C49.916,216.392 50.538,216.795 51.161,217.198 C51.809,217.587 52.457,217.976 53.105,218.365 C53.778,218.739 54.45,219.112 55.124,219.486 C55.822,219.846 56.521,220.206 57.218,220.565 C57.942,220.91 58.665,221.254 59.39,221.6 C60.137,221.931 60.886,222.261 61.634,222.592 C62.409,222.907 63.182,223.222 63.956,223.539 C64.478,223.093 64.999,222.645 65.522,222.198 C66.018,221.766 66.516,221.334 67.012,220.902 C67.484,220.485 67.954,220.067 68.426,219.649 C68.873,219.246 69.319,218.843 69.766,218.44 C70.186,218.051 70.609,217.662 71.03,217.273 C71.425,216.899 71.822,216.526 72.217,216.152 C72.588,215.792 72.959,215.432 73.329,215.073 C73.674,214.728 74.02,214.384 74.366,214.038 C74.687,213.709 75.007,213.377 75.327,213.048 C75.623,212.731 75.918,212.416 76.214,212.099 C76.18,191.283 70.527,166.009 49.945,154.038 C49.268,153.907 48.593,153.769 47.926,153.597 C47.258,153.424 46.599,153.217 45.954,152.974 C45.825,152.925 45.697,152.875 45.569,152.824 C43.146,150.561 40.554,148.629 37.689,146.961 C36.926,147.755 36.169,148.553 35.422,149.36 C34.673,150.166 33.935,150.982 33.202,151.803 C32.47,152.622 31.742,153.448 31.02,154.278 C30.3,155.109 29.583,155.944 28.873,156.784 C28.161,157.622 27.455,158.465 26.751,159.312 C26.047,160.157 25.348,161.006 24.652,161.857 C23.956,162.71 23.265,163.565 22.572,164.419 C23.386,165.157 24.209,165.886 25.055,166.587 C25.902,167.289 26.77,167.963 27.662,168.606 C28.447,169.171 29.252,169.712 30.07,170.23 z" fill-opacity="0" stroke="#000000" stroke-width="1.25" stroke-linecap="round" stroke-linejoin="round"/>
    <path d="M37.651,161.338 C38.357,161.651 38.682,161.319 38.987,160.712 C39.296,160.098 39.362,159.621 38.643,159.301 C37.938,158.988 37.613,159.32 37.307,159.927 C36.999,160.541 36.931,161.018 37.651,161.338 z" fill="#000000"/>
    <path d="M37.651,161.338 C38.357,161.651 38.682,161.319 38.987,160.712 C39.296,160.098 39.362,159.621 38.643,159.301 C37.938,158.988 37.613,159.32 37.307,159.927 C36.999,160.541 36.931,161.018 37.651,161.338 z" fill-opacity="0" stroke="#000000" stroke-width="0.25" stroke-linecap="round" stroke-linejoin="round"/>
    <path d="M38.023,160.248 L26.83,153.737" fill-opacity="0" stroke="#666666" stroke-width="0.5" stroke-dasharray="1.5,1" stroke-linecap="round" stroke-linejoin="round"/>
    <path d="M240.343,234.318 L238.701,235.659 L236.985,236.955 L235.193,238.208 L233.324,239.418 L231.381,240.584 L229.362,241.706 L227.266,242.784 L225.097,243.819 L222.85,244.81 L220.53,245.758 L218.964,244.418 L217.474,243.12 L216.058,241.867 L214.721,240.659 L213.457,239.493 L212.268,238.371 L211.156,237.293 L210.119,236.258 L209.157,235.266 L208.273,234.318 L209.839,233.806 L211.329,233.251 L212.743,232.653 L214.082,232.011 L215.346,231.325 L216.533,230.595 L217.645,229.822 L218.682,229.007 L219.644,228.146 L220.53,227.242 L222.17,227.754 L223.887,228.309 L225.681,228.907 L227.548,229.549 L229.492,230.235 L231.511,230.965 L233.605,231.738 L235.775,232.554 L238.021,233.414 L240.343,234.318 z" fill-opacity="0" stroke="#000000" stroke-width="0.75" stroke-linecap="round" stroke-linejoin="round"/>
    <path d="M222.377,235.385 C222.396,228.467 222.406,221.547 222.417,214.628 C222.428,207.665 222.865,200.846 224.332,193.998 C227.206,180.577 233.791,167.617 246.399,160.284" fill-opacity="0" stroke="#666666" stroke-width="0.5" stroke-dasharray="1.5,1" stroke-linecap="round" stroke-linejoin="round"/>
    <path d="M220.53,223.539 C220.557,206.444 225.198,185.689 242.101,175.859 C243.147,175.521 244.19,175.174 245.221,174.792 C246.251,174.411 247.269,173.995 248.272,173.544 C249.274,173.092 250.259,172.606 251.229,172.087 C252.198,171.569 253.15,171.019 254.083,170.438 C255.018,169.859 255.931,169.247 256.824,168.606 C257.715,167.963 258.586,167.289 259.43,166.588 C260.277,165.886 261.099,165.156 261.914,164.42 C245.011,174.251 240.371,195.004 240.342,212.099 C239.499,212.796 238.645,213.481 237.773,214.142 C236.901,214.803 236.011,215.44 235.101,216.049 C234.192,216.657 233.262,217.236 232.325,217.798 C231.386,218.361 230.437,218.907 229.472,219.425 C228.509,219.944 227.531,220.435 226.544,220.91 C225.558,221.385 224.565,221.843 223.56,222.278 C222.557,222.713 221.542,223.126 220.53,223.539 z" fill="#FFFFFF"/>
    <path d="M220.53,223.539 C220.557,206.444 225.198,185.689 242.101,175.859 C243.147,175.521 244.19,175.174 245.221,174.792 C246.251,174.411 247.269,173.995 248.272,173.544 C249.274,173.092 250.259,172.606 251.229,172.087 C252.198,171.569 253.15,171.019 254.083,170.438 C255.018,169.859 255.931,169.247 256.824,168.606 C257.715,167.963 258.586,167.289 259.43,166.588 C260.277,165.886 261.099,165.156 261.914,164.42 C245.011,174.251 240.371,195.004 240.342,212.099 C239.499,212.796 238.645,213.481 237.773,214.142 C236.901,214.803 236.011,215.439 235.101,216.049 C234.192,216.657 233.262,217.236 232.325,217.798 C231.386,218.361 230.437,218.907 229.472,219.425 C228.509,219.943 227.531,220.435 226.544,220.91 C225.558,221.385 224.565,221.843 223.56,222.278 C222.557,222.713 221.542,223.126 220.53,223.539 z" fill-opacity="0" stroke="#000000" stroke-width="0.5" stroke-linecap="round" stroke-linejoin="round"/>
    <path d="M234.54,154.039 C213.958,166.01 208.307,191.282 208.273,212.099 C208.816,212.685 209.365,213.266 209.924,213.837 C210.483,214.408 211.051,214.97 211.624,215.527 C212.197,216.082 212.774,216.634 213.357,217.179 C213.941,217.727 214.529,218.266 215.121,218.802 C215.713,219.338 216.309,219.871 216.907,220.4 C217.505,220.93 218.107,221.456 218.71,221.978 C219.315,222.501 219.923,223.019 220.529,223.539 C220.557,206.443 225.198,185.69 242.101,175.859 C241.707,174.832 241.312,173.805 240.923,172.776 C240.533,171.747 240.148,170.717 239.768,169.685 C239.387,168.653 239.009,167.619 238.638,166.584 C238.267,165.549 237.902,164.511 237.544,163.471 C237.185,162.431 236.833,161.389 236.489,160.344 C236.145,159.299 235.809,158.251 235.484,157.2 C235.16,156.151 234.846,155.095 234.54,154.039 z" fill="#FFFFFF"/>
    <path d="M234.54,154.038 C213.958,166.01 208.307,191.282 208.273,212.099 C208.816,212.685 209.365,213.266 209.924,213.837 C210.483,214.408 211.051,214.97 211.624,215.527 C212.197,216.082 212.774,216.634 213.357,217.179 C213.941,217.727 214.529,218.266 215.121,218.802 C215.713,219.338 216.309,219.87 216.907,220.4 C217.505,220.93 218.107,221.456 218.71,221.978 C219.315,222.501 219.923,223.019 220.529,223.539 C220.557,206.443 225.198,185.69 242.101,175.859 C241.707,174.832 241.312,173.805 240.923,172.776 C240.533,171.747 240.148,170.717 239.768,169.685 C239.387,168.653 239.009,167.619 238.638,166.584 C238.267,165.549 237.902,164.51 237.544,163.471 C237.185,162.43 236.833,161.389 236.489,160.344 C236.145,159.299 235.809,158.251 235.484,157.2 C235.16,156.15 234.846,155.094 234.54,154.038 z" fill-opacity="0" stroke="#000000" stroke-width="0.5" stroke-linecap="round" stroke-linejoin="round"/>
    <path d="M234.54,154.039 C235.217,153.907 235.893,153.77 236.56,153.597 C237.227,153.424 237.886,153.218 238.531,152.975 C239.176,152.731 239.808,152.451 240.422,152.139 C241.036,151.827 241.635,151.483 242.212,151.107 C242.79,150.73 243.347,150.323 243.88,149.887 C244.412,149.448 244.921,148.983 245.404,148.49 C245.888,147.999 246.345,147.483 246.798,146.962 C247.56,147.755 248.316,148.554 249.064,149.36 C249.812,150.167 250.552,150.983 251.283,151.802 C252.017,152.623 252.744,153.448 253.465,154.279 C254.187,155.109 254.902,155.944 255.613,156.784 C256.324,157.623 257.032,158.466 257.734,159.312 C258.438,160.157 259.139,161.007 259.835,161.858 C260.529,162.709 261.222,163.565 261.915,164.419 C261.099,165.157 260.276,165.887 259.43,166.587 C258.585,167.29 257.715,167.963 256.824,168.605 C255.931,169.248 255.017,169.858 254.083,170.439 C253.15,171.019 252.198,171.568 251.229,172.087 C250.259,172.605 249.273,173.091 248.272,173.543 C247.27,173.995 246.251,174.41 245.221,174.792 C244.19,175.173 243.147,175.52 242.1,175.859 C241.707,174.832 241.312,173.805 240.923,172.776 C240.533,171.747 240.148,170.717 239.768,169.685 C239.387,168.653 239.009,167.619 238.638,166.584 C238.267,165.549 237.902,164.511 237.544,163.471 C237.185,162.431 236.833,161.389 236.489,160.344 C236.145,159.299 235.809,158.251 235.484,157.2 C235.16,156.151 234.846,155.095 234.54,154.039 z" fill="#FFFFFF"/>
    <path d="M234.54,154.039 C235.217,153.907 235.893,153.77 236.56,153.597 C237.227,153.424 237.886,153.218 238.531,152.975 C239.176,152.731 239.808,152.451 240.422,152.139 C241.036,151.827 241.635,151.483 242.212,151.107 C242.79,150.73 243.347,150.323 243.88,149.887 C244.412,149.448 244.921,148.983 245.404,148.49 C245.888,147.999 246.345,147.483 246.798,146.962 C247.56,147.755 248.316,148.554 249.064,149.36 C249.812,150.167 250.552,150.983 251.283,151.802 C252.017,152.623 252.744,153.448 253.465,154.279 C254.187,155.109 254.902,155.944 255.613,156.784 C256.324,157.623 257.032,158.466 257.734,159.312 C258.438,160.157 259.139,161.007 259.835,161.858 C260.529,162.709 261.222,163.565 261.915,164.419 C261.099,165.157 260.276,165.887 259.43,166.587 C258.585,167.29 257.715,167.963 256.824,168.605 C255.931,169.248 255.017,169.858 254.083,170.439 C253.15,171.019 252.198,171.568 251.229,172.087 C250.259,172.605 249.273,173.091 248.272,173.543 C247.27,173.995 246.251,174.41 245.221,174.792 C244.19,175.173 243.147,175.52 242.1,175.859 C241.707,174.832 241.312,173.805 240.923,172.776 C240.533,171.747 240.148,170.717 239.768,169.685 C239.387,168.653 239.009,167.619 238.638,166.584 C238.267,165.549 237.902,164.511 237.544,163.471 C237.185,162.431 236.833,161.389 236.489,160.344 C236.145,159.299 235.809,158.251 235.484,157.2 C235.16,156.151 234.846,155.095 234.54,154.039 z" fill-opacity="0" stroke="#000000" stroke-width="0.5" stroke-linecap="round" stroke-linejoin="round"/>
    <path d="M208.273,212.099 C208.306,191.283 213.959,166.01 234.54,154.039 C235.218,153.907 235.893,153.77 236.561,153.597 C237.228,153.424 237.885,153.216 238.532,152.975 C238.661,152.925 238.789,152.875 238.917,152.823 C241.34,150.562 243.932,148.629 246.797,146.962 C247.559,147.755 248.316,148.554 249.065,149.36 C249.812,150.167 250.551,150.983 251.284,151.802 C252.017,152.623 252.743,153.448 253.465,154.279 C254.186,155.109 254.901,155.944 255.613,156.784 C256.324,157.623 257.031,158.466 257.735,159.312 C258.437,160.157 259.138,161.005 259.834,161.858 C260.53,162.709 261.221,163.565 261.914,164.419 C261.098,165.157 260.276,165.887 259.431,166.587 C258.585,167.29 257.716,167.963 256.823,168.605 C256.037,169.171 255.234,169.712 254.417,170.231 C243.522,181.221 240.365,197.842 240.343,212.099 C239.5,212.797 238.645,213.48 237.773,214.141 C236.901,214.802 236.01,215.44 235.101,216.048 C234.191,216.656 233.263,217.235 232.324,217.799 C231.385,218.36 230.436,218.907 229.473,219.426 C228.509,219.943 227.53,220.435 226.545,220.909 C225.559,221.384 224.564,221.842 223.561,222.277 C222.557,222.714 221.543,223.125 220.53,223.539 C219.924,223.019 219.316,222.501 218.711,221.978 C218.106,221.456 217.506,220.93 216.908,220.4 C216.309,219.871 215.714,219.338 215.122,218.802 C214.529,218.266 213.94,217.725 213.357,217.179 C212.773,216.634 212.196,216.082 211.623,215.525 C211.05,214.97 210.482,214.408 209.924,213.837 C209.365,213.266 208.817,212.685 208.273,212.099 z" fill-opacity="0" stroke="#000000" stroke-width="1.25" stroke-linecap="round" stroke-linejoin="round"/>
    <path d="M246.972,161.258 C247.596,160.804 247.471,160.357 247.098,159.789 C246.721,159.215 246.342,158.917 245.705,159.381 C245.081,159.836 245.206,160.282 245.579,160.85 C245.956,161.425 246.335,161.722 246.972,161.258 z" fill="#000000"/>
    <path d="M246.972,161.258 C247.596,160.804 247.471,160.357 247.098,159.789 C246.721,159.215 246.342,158.917 245.705,159.381 C245.081,159.836 245.206,160.282 245.579,160.85 C245.956,161.425 246.335,161.722 246.972,161.258 z" fill-opacity="0" stroke="#000000" stroke-width="0.25" stroke-linecap="round" stroke-linejoin="round"/>
    <path d="M246.399,160.284 C250.151,158.102 253.903,155.919 257.655,153.737" fill-opacity="0" stroke="#666666" stroke-width="0.5" stroke-dasharray="1.5,1" stroke-linecap="round" stroke-linejoin="round"/>
    <path d="M142.243,176.159 L142.243,102.095 L142.243,92.837" fill-opacity="0" stroke="#666666" stroke-width="0.5" stroke-dasharray="1.5,1" stroke-linecap="round" stroke-linejoin="round"/>
    <path d="M142.243,176.158 L142.243,188.786" fill-opacity="0" stroke="#666666" stroke-width="0.5" stroke-dasharray="1,1" stroke-linecap="round" stroke-linejoin="round"/>
    <path d="M126.208,92.837 L142.243,102.095 L142.243,176.159 L126.208,166.901 L126.208,92.837 z" fill="#FFFFFF"/>
    <path d="M126.208,92.837 L142.243,102.095 L142.243,176.159 L126.208,166.901 L126.208,92.837 z" fill-opacity="0" stroke="#6887FF" stroke-width="0.5" stroke-linecap="round" stroke-linejoin="round"/>
    <path d="M158.278,166.901 L142.243,176.158 L142.243,102.096 L158.278,92.837 L158.278,166.901 z" fill="#FFFFFF"/>
    <path d="M158.278,166.901 L142.243,176.158 L142.243,102.096 L158.278,92.837 L158.278,166.901 z" fill-opacity="0" stroke="#6887FF" stroke-width="0.5" stroke-linecap="round" stroke-linejoin="round"/>
    <path d="M142.243,102.095 L158.278,92.838 L142.243,83.58 L126.208,92.838 L142.243,102.095 z" fill="#FFFFFF"/>
    <path d="M142.243,102.095 L158.278,92.838 L142.243,83.58 L126.208,92.838 L142.243,102.095 z" fill-opacity="0" stroke="#6887FF" stroke-width="0.5" stroke-linecap="round" stroke-linejoin="round"/>
    <path d="M158.278,166.901 L142.243,176.158 L126.208,166.901 L126.208,92.837 L142.243,83.579 L158.278,92.837 L158.278,166.901 z" fill-opacity="0" stroke="#6887FF" stroke-width="1.25" stroke-linecap="round" stroke-linejoin="round"/>
    <path d="M143.045,93.3 C143.619,92.969 143.4,92.476 142.829,92.278 C142.323,92.1 141.92,92.099 141.441,92.374 C140.867,92.707 141.086,93.199 141.656,93.398 C142.163,93.574 142.566,93.577 143.045,93.3 z" fill="#000000"/>
    <path d="M143.045,93.3 C143.619,92.969 143.4,92.476 142.829,92.278 C142.323,92.1 141.92,92.099 141.441,92.374 C140.867,92.707 141.086,93.199 141.656,93.398 C142.163,93.574 142.566,93.577 143.045,93.3 z" fill-opacity="0" stroke="#000000" stroke-width="0.25" stroke-linecap="round" stroke-linejoin="round"/>
    <path d="M142.243,92.837 L142.243,74.322" fill-opacity="0" stroke="#666666" stroke-width="0.5" stroke-dasharray="1.5,1" stroke-linecap="round" stroke-linejoin="round"/>
    <path d="M268.116,149.855 C267.478,151.001 267.379,151.847 267.379,152.106 C267.379,152.515 267.508,152.555 267.668,152.555 C268.544,152.555 269.212,151.818 269.212,151.479 C269.212,151.379 269.132,151.359 269.092,151.359 C269.013,151.359 268.993,151.399 268.963,151.479 C268.853,151.678 268.405,151.877 267.728,151.887 C267.708,151.837 267.688,151.778 267.688,151.708 C267.688,151.548 267.917,150.612 268.405,149.835 C268.604,149.536 268.614,149.526 268.923,149.317 C269.302,149.058 269.86,148.689 269.909,148.639 C269.919,148.619 269.979,148.56 269.979,148.46 C269.979,148.251 269.76,148.201 269.66,148.201 C269.421,148.201 269.232,148.331 269.112,148.41 L265.297,150.951 C265.586,150.462 266.034,149.426 266.034,148.689 C266.034,148.45 266.034,148.241 265.755,148.241 C264.858,148.241 264.211,148.998 264.211,149.317 C264.211,149.377 264.251,149.436 264.33,149.436 C264.41,149.436 264.43,149.387 264.47,149.317 C264.549,149.137 265.018,148.908 265.695,148.908 C265.725,148.968 265.725,149.058 265.725,149.088 C265.725,149.626 265.028,151.13 264.749,151.319 C264.699,151.349 264.699,151.359 264.35,151.578 L263.693,152.017 C263.523,152.136 263.444,152.186 263.444,152.335 C263.444,152.585 263.733,152.594 263.762,152.594 C264.002,152.594 264.201,152.455 264.31,152.385 z" fill="#000000"/>
    <path d="M272.796,154.039 L272.796,153.788 L272.531,153.788 C271.833,153.788 271.833,153.697 271.833,153.467 L271.833,149.603 C271.833,149.415 271.819,149.408 271.624,149.408 C271.178,149.848 270.543,149.854 270.257,149.854 L270.257,150.105 C270.424,150.105 270.885,150.105 271.268,149.91 L271.268,153.467 C271.268,153.697 271.268,153.788 270.571,153.788 L270.306,153.788 L270.306,154.039 L271.547,154.011 z" fill="#000000"/>
    <path d="M222.272,19.001 C221.635,20.146 221.535,20.993 221.535,21.252 C221.535,21.661 221.665,21.7 221.824,21.7 C222.701,21.7 223.368,20.963 223.368,20.625 C223.368,20.525 223.288,20.505 223.249,20.505 C223.169,20.505 223.149,20.545 223.119,20.625 C223.01,20.824 222.561,21.023 221.884,21.033 C221.864,20.983 221.844,20.923 221.844,20.854 C221.844,20.694 222.073,19.758 222.561,18.981 C222.76,18.682 222.77,18.672 223.079,18.463 C223.458,18.203 224.016,17.835 224.066,17.785 C224.076,17.765 224.135,17.705 224.135,17.606 C224.135,17.397 223.916,17.347 223.816,17.347 C223.577,17.347 223.388,17.476 223.269,17.556 L219.453,20.096 C219.742,19.608 220.19,18.572 220.19,17.835 C220.19,17.596 220.19,17.387 219.911,17.387 C219.015,17.387 218.367,18.144 218.367,18.463 C218.367,18.522 218.407,18.582 218.486,18.582 C218.566,18.582 218.586,18.532 218.626,18.463 C218.706,18.283 219.174,18.054 219.851,18.054 C219.881,18.114 219.881,18.203 219.881,18.233 C219.881,18.771 219.184,20.276 218.905,20.465 C218.855,20.495 218.855,20.505 218.506,20.724 L217.849,21.162 C217.68,21.282 217.6,21.332 217.6,21.481 C217.6,21.73 217.889,21.74 217.919,21.74 C218.158,21.74 218.357,21.601 218.467,21.531 z" fill="#000000"/>
    <path d="M227.238,21.978 C227.238,21.434 226.791,20.89 226.024,20.73 C226.756,20.465 227.021,19.942 227.021,19.516 C227.021,18.965 226.387,18.554 225.613,18.554 C224.839,18.554 224.246,18.93 224.246,19.488 C224.246,19.726 224.399,19.858 224.608,19.858 C224.825,19.858 224.964,19.698 224.964,19.502 C224.964,19.3 224.825,19.154 224.608,19.14 C224.853,18.833 225.334,18.756 225.592,18.756 C225.906,18.756 226.345,18.91 226.345,19.516 C226.345,19.809 226.247,20.13 226.066,20.346 C225.836,20.611 225.641,20.625 225.292,20.646 C225.118,20.66 225.104,20.66 225.069,20.667 C225.069,20.667 224.999,20.681 224.999,20.758 C224.999,20.855 225.062,20.855 225.18,20.855 L225.557,20.855 C226.101,20.855 226.491,21.232 226.491,21.978 C226.491,22.843 225.989,23.101 225.585,23.101 C225.306,23.101 224.692,23.024 224.399,22.613 C224.727,22.599 224.804,22.368 224.804,22.222 C224.804,21.999 224.636,21.838 224.42,21.838 C224.225,21.838 224.03,21.957 224.03,22.243 C224.03,22.899 224.755,23.324 225.599,23.324 C226.568,23.324 227.238,22.675 227.238,21.978 z" fill="#000000"/>
    <path d="M14.335,149.855 C13.697,151 13.598,151.847 13.598,152.106 C13.598,152.515 13.727,152.555 13.886,152.555 C14.763,152.555 15.431,151.817 15.431,151.479 C15.431,151.379 15.351,151.359 15.311,151.359 C15.231,151.359 15.212,151.399 15.182,151.479 C15.072,151.678 14.624,151.877 13.946,151.887 C13.926,151.837 13.906,151.778 13.906,151.708 C13.906,151.548 14.136,150.612 14.624,149.835 C14.823,149.536 14.833,149.526 15.142,149.317 C15.52,149.058 16.078,148.689 16.128,148.639 C16.138,148.619 16.198,148.56 16.198,148.46 C16.198,148.251 15.979,148.201 15.879,148.201 C15.64,148.201 15.451,148.33 15.331,148.41 L11.515,150.951 C11.804,150.462 12.253,149.426 12.253,148.689 C12.253,148.45 12.253,148.241 11.974,148.241 C11.077,148.241 10.429,148.998 10.429,149.317 C10.429,149.377 10.469,149.436 10.549,149.436 C10.629,149.436 10.649,149.386 10.688,149.317 C10.768,149.137 11.236,148.908 11.914,148.908 C11.944,148.968 11.944,149.058 11.944,149.088 C11.944,149.626 11.246,151.13 10.967,151.319 C10.918,151.349 10.918,151.359 10.569,151.578 L9.911,152.017 C9.742,152.136 9.662,152.186 9.662,152.335 C9.662,152.584 9.951,152.594 9.981,152.594 C10.22,152.594 10.42,152.455 10.529,152.385 z" fill="#000000"/>
    <path d="M19.237,152.769 L19,152.769 C18.979,152.923 18.91,153.334 18.819,153.404 C18.763,153.446 18.226,153.446 18.128,153.446 L16.845,153.446 C17.578,152.797 17.822,152.602 18.24,152.274 C18.756,151.863 19.237,151.43 19.237,150.768 C19.237,149.924 18.498,149.408 17.605,149.408 C16.741,149.408 16.155,150.015 16.155,150.656 C16.155,151.012 16.455,151.047 16.525,151.047 C16.692,151.047 16.894,150.928 16.894,150.677 C16.894,150.552 16.845,150.308 16.483,150.308 C16.699,149.812 17.173,149.659 17.501,149.659 C18.198,149.659 18.561,150.203 18.561,150.768 C18.561,151.375 18.128,151.856 17.905,152.107 L16.225,153.767 C16.155,153.829 16.155,153.843 16.155,154.039 L19.028,154.039 z" fill="#000000"/>
    <path d="M63.526,12.839 C63.526,12.809 63.516,12.699 63.427,12.699 C63.427,12.699 63.387,12.699 63.297,12.759 C62.988,12.958 62.62,13.128 62.251,13.128 C61.673,13.128 61.175,12.709 61.175,11.832 C61.175,11.484 61.255,11.105 61.285,10.986 L62.929,10.986 C63.088,10.986 63.267,10.986 63.267,10.816 C63.267,10.677 63.148,10.677 62.979,10.677 L61.365,10.677 C61.604,9.83 62.162,9.252 63.068,9.252 L63.377,9.252 C63.546,9.252 63.706,9.252 63.706,9.083 C63.706,8.943 63.576,8.943 63.407,8.943 L63.058,8.943 C61.763,8.943 60.428,9.94 60.428,11.464 C60.428,12.56 61.175,13.347 62.231,13.347 C62.879,13.347 63.526,12.948 63.526,12.839 z" fill="#000000"/>
    <path d="M123.824,211.659 C123.964,211.578 123.834,211.503 123.756,211.458 C123.661,211.404 123.627,211.384 123.534,211.388 C123.497,211.389 123.477,211.401 123.176,211.515 C122.207,211.875 121.809,211.876 121.593,211.751 C121.498,211.696 121.435,211.613 121.763,211.424 C121.913,211.337 122.069,211.267 122.243,211.206 L128.923,208.724 C129.098,208.664 129.127,208.646 129.127,208.646 C129.257,208.572 129.212,208.488 129.117,208.433 C129.082,208.413 129.074,208.408 129.047,208.404 L127.874,207.796 C127.743,207.732 127.578,207.648 127.299,207.809 C127.119,207.913 127.275,208.002 127.344,208.042 C127.439,208.097 127.594,208.187 127.686,208.263 L125.019,209.265 C125.029,209.11 124.963,208.819 124.506,208.555 C123.005,207.688 120.499,208.059 119.134,208.847 C117.909,209.555 118.284,210.254 119,210.668 C119.612,211.022 120.45,211.056 120.737,211.05 C120.527,211.55 121.096,211.878 121.191,211.933 C121.511,212.117 121.97,212.141 122.51,212.039 C123.124,211.933 123.774,211.687 123.824,211.659 z M121.119,210.73 C120.53,210.781 119.816,210.725 119.402,210.486 C118.867,210.177 119.362,209.841 119.581,209.715 C120.099,209.416 121.618,208.878 122.144,208.733 C123.139,208.468 123.811,208.568 124.164,208.772 C124.674,209.066 124.412,209.456 124.303,209.519 L124.146,209.59 z" fill="#000000"/>
    <path d="M123.804,215.075 L124.055,214.93 L123.826,214.797 C123.222,214.449 123.313,214.396 123.543,214.264 L127.406,212.033 C127.595,211.924 127.59,211.913 127.42,211.816 C126.594,211.846 126.038,211.533 125.79,211.39 L125.539,211.535 C125.684,211.618 126.083,211.849 126.61,211.928 L123.054,213.981 C122.823,214.114 122.733,214.166 122.129,213.818 L121.899,213.685 L121.648,213.83 L122.751,214.435 z" fill="#000000"/>
    <path d="M163.118,212.26 C163.258,212.179 163.128,212.104 163.051,212.06 C162.956,212.005 162.921,211.985 162.828,211.989 C162.791,211.99 162.771,212.002 162.47,212.116 C161.501,212.476 161.103,212.477 160.887,212.352 C160.792,212.297 160.729,212.215 161.058,212.025 C161.207,211.938 161.364,211.868 161.538,211.807 L168.218,209.325 C168.392,209.265 168.422,209.248 168.422,209.248 C168.551,209.173 168.506,209.089 168.411,209.034 C168.377,209.015 168.368,209.01 168.341,209.005 L167.168,208.397 C167.037,208.333 166.872,208.249 166.593,208.41 C166.414,208.514 166.569,208.604 166.638,208.643 C166.733,208.698 166.888,208.788 166.98,208.864 L164.313,209.866 C164.323,209.711 164.257,209.42 163.8,209.156 C162.299,208.289 159.793,208.66 158.428,209.448 C157.203,210.156 157.578,210.856 158.294,211.269 C158.907,211.623 159.744,211.657 160.031,211.651 C159.821,212.151 160.391,212.48 160.486,212.534 C160.805,212.719 161.264,212.742 161.804,212.64 C162.418,212.534 163.068,212.288 163.118,212.26 z M160.413,211.331 C159.824,211.382 159.11,211.326 158.696,211.087 C158.161,210.778 158.656,210.443 158.875,210.316 C159.393,210.017 160.912,209.479 161.438,209.334 C162.433,209.069 163.105,209.169 163.459,209.373 C163.968,209.667 163.706,210.057 163.597,210.12 L163.44,210.191 z" fill="#000000"/>
    <path d="M164.561,215.055 L164.356,214.936 C164.184,215.014 163.712,215.217 163.564,215.212 C163.474,215.208 163.009,214.94 162.924,214.891 L161.813,214.249 C163.096,214.241 163.502,214.25 164.193,214.27 C165.051,214.291 165.9,214.282 166.562,213.899 C167.406,213.412 167.282,212.745 166.509,212.298 C165.76,211.866 164.646,211.923 164.005,212.294 C163.649,212.499 163.874,212.669 163.934,212.704 C164.079,212.788 164.373,212.82 164.624,212.675 C164.749,212.603 164.951,212.438 164.637,212.256 C165.32,212.078 165.884,212.227 166.167,212.391 C166.771,212.74 166.542,213.235 165.977,213.561 C165.37,213.911 164.514,213.973 164.07,214.006 L160.955,214.124 C160.832,214.126 160.818,214.134 160.622,214.246 L163.111,215.683 z" fill="#000000"/>
    <path d="M143.157,68.706 C143.157,68.567 143.007,68.567 142.918,68.567 C142.808,68.567 142.768,68.567 142.719,68.616 C142.699,68.636 142.699,68.656 142.639,68.905 C142.44,69.702 142.21,69.902 141.961,69.902 C141.852,69.902 141.732,69.862 141.732,69.533 C141.732,69.383 141.752,69.244 141.792,69.105 L143.167,63.615 C143.207,63.476 143.207,63.446 143.207,63.446 C143.207,63.316 143.097,63.266 142.988,63.266 C142.948,63.266 142.938,63.266 142.918,63.276 L141.633,63.336 C141.493,63.346 141.314,63.356 141.314,63.635 C141.314,63.814 141.493,63.814 141.573,63.814 C141.682,63.814 141.862,63.814 141.991,63.834 L141.453,66.036 C141.304,65.897 140.975,65.677 140.447,65.677 C138.714,65.677 137.638,67.251 137.638,68.616 C137.638,69.842 138.554,70.26 139.381,70.26 C140.089,70.26 140.606,69.872 140.766,69.722 C141.145,70.26 141.802,70.26 141.912,70.26 C142.28,70.26 142.569,70.051 142.778,69.692 C143.027,69.294 143.157,68.756 143.157,68.706 z M140.666,69.254 C140.377,69.593 139.909,69.902 139.431,69.902 C138.813,69.902 138.763,69.364 138.763,69.144 C138.763,68.626 139.102,67.401 139.262,67.012 C139.57,66.285 140.059,66.036 140.467,66.036 C141.055,66.036 141.294,66.504 141.294,66.614 L141.274,66.753 z" fill="#000000"/>
    <path d="M146.848,70.468 C146.848,69.924 146.402,69.38 145.634,69.22 C146.367,68.955 146.632,68.432 146.632,68.006 C146.632,67.455 145.997,67.044 145.223,67.044 C144.449,67.044 143.856,67.421 143.856,67.978 C143.856,68.215 144.01,68.348 144.219,68.348 C144.435,68.348 144.574,68.188 144.574,67.992 C144.574,67.79 144.435,67.644 144.219,67.63 C144.463,67.323 144.944,67.246 145.202,67.246 C145.516,67.246 145.955,67.4 145.955,68.006 C145.955,68.299 145.858,68.62 145.676,68.836 C145.446,69.101 145.251,69.115 144.902,69.136 C144.728,69.15 144.714,69.15 144.679,69.157 C144.679,69.157 144.609,69.171 144.609,69.248 C144.609,69.345 144.672,69.345 144.791,69.345 L145.167,69.345 C145.711,69.345 146.102,69.722 146.102,70.468 C146.102,71.333 145.6,71.591 145.195,71.591 C144.916,71.591 144.302,71.514 144.01,71.103 C144.337,71.089 144.414,70.859 144.414,70.712 C144.414,70.489 144.247,70.329 144.03,70.329 C143.835,70.329 143.64,70.447 143.64,70.733 C143.64,71.389 144.365,71.814 145.209,71.814 C146.178,71.814 146.848,71.165 146.848,70.468 z" fill="#000000"/>
  </g>
</svg>
